<svg width="52" height="52" viewBox="0 0 52 52" fill="none" xmlns="http://www.w3.org/2000/svg">
<path d="M33.8966 10.7501C31.5023 8.99684 28.6633 8.07326 25.6964 8.07326C22.7286 8.07326 19.8896 8.99684 17.4959 10.7501C15.102 12.5036 13.355 14.9243 12.4515 17.7501C10.6241 23.4959 12.7211 29.7273 17.6848 33.2407C18.3183 33.6922 18.6961 34.42 18.6961 35.1963V36.3493C18.6961 37.5293 19.6536 38.4868 20.834 38.4868L31.5362 38.4934C31.941 38.5409 32.2515 38.8847 32.2515 39.2894C32.2515 39.6939 31.941 40.038 31.5362 40.0848L22.1554 40.0924C22.1488 40.0924 22.1422 40.0924 22.1287 40.0924C22.1221 40.0924 22.1155 40.0924 22.1017 40.0924C20.443 40.1665 19.1345 41.5216 19.1345 43.1875C19.1345 44.8527 20.4361 46.2087 22.1017 46.2829H22.1422L29.8298 46.357C30.2349 46.4038 30.5451 46.7476 30.5451 47.1527C30.5451 47.5572 30.2349 47.9013 29.8298 47.9478L23.0325 47.9553C22.3983 47.9553 21.8861 48.4679 21.8861 49.1014C21.8861 49.7353 22.3983 50.2478 23.0325 50.2478L29.8908 50.2412C29.9181 50.2412 29.9514 50.2412 29.9785 50.2346H30.0118C31.6107 50.0995 32.8441 48.7507 32.8441 47.1593C32.8441 45.5679 31.6173 44.2257 30.0394 44.0774C30.0322 44.0774 30.0256 44.0774 30.0256 44.0774C30.019 44.0774 30.0052 44.0774 29.9986 44.0774C29.9851 44.0774 29.9715 44.0774 29.958 44.0774C29.9448 44.0774 29.9313 44.0774 29.9181 44.0774L22.2028 44.0033C21.778 43.9828 21.4411 43.6324 21.4411 43.201C21.4411 42.7754 21.7714 42.4251 22.1963 42.398L31.5965 42.3914C31.6239 42.3914 31.6575 42.3914 31.6849 42.3848H31.7182C33.303 42.2431 34.5304 40.8943 34.5304 39.3029C34.5304 37.7116 33.2964 36.3624 31.7182 36.221C31.7116 36.221 31.705 36.221 31.705 36.221C31.6981 36.221 31.6915 36.221 31.6849 36.221C31.6707 36.221 31.6575 36.221 31.6374 36.221C31.6239 36.221 31.6107 36.221 31.59 36.221L20.9823 36.2145V35.216C20.9823 33.6988 20.2403 32.2627 18.9997 31.3856C14.8524 28.4454 13.0989 23.253 14.6227 18.4581C16.1607 13.6233 20.6049 10.3723 25.6826 10.3723C30.761 10.3723 35.2048 13.6233 36.7422 18.4581C38.2801 23.2932 36.5335 28.513 32.3995 31.4466C31.8803 31.8105 31.759 32.5254 32.1299 33.0445C32.3524 33.362 32.7097 33.5304 33.067 33.5304C33.2964 33.5304 33.5258 33.4628 33.7278 33.3211C36.1489 31.6018 37.9291 29.2075 38.8734 26.3959C39.8175 23.5767 39.8376 20.596 38.9338 17.7705C38.0372 14.9243 36.2906 12.5036 33.8966 10.7501Z" fill="#003E83"/>
<path d="M9.74075 21.0614H6.09917C5.58002 21.0614 5.15515 21.4863 5.15515 22.0054C5.15515 22.5246 5.58002 22.9494 6.09917 22.9494H9.74075C10.2599 22.9494 10.6848 22.5246 10.6848 22.0054C10.6848 21.4797 10.2665 21.0614 9.74075 21.0614Z" fill="#003E83"/>
<path d="M25.6628 7.02739C26.1816 7.02739 26.6068 6.60252 26.6068 6.08337V2.44212C26.6068 1.92265 26.1816 1.49777 25.6628 1.49777C25.1433 1.49777 24.7184 1.92265 24.7184 2.44212V6.08337C24.7184 6.60944 25.1364 7.02739 25.6628 7.02739Z" fill="#003E83"/>
<path d="M14.4074 11.6941C14.6431 11.6941 14.886 11.6067 15.0683 11.4245C15.4388 11.0606 15.4461 10.4597 15.0818 10.0895L12.5257 7.46611C12.1614 7.09496 11.5615 7.08837 11.1904 7.45292C10.8196 7.81649 10.813 8.41672 11.1772 8.78786L13.733 11.4113C13.9216 11.5998 14.1645 11.6941 14.4074 11.6941Z" fill="#003E83"/>
<path d="M38.8599 7.47269L36.3041 10.0961C35.9396 10.4672 35.9461 11.0671 36.3173 11.4314C36.4992 11.6133 36.7422 11.7007 36.9785 11.7007C37.2214 11.7007 37.4709 11.6067 37.6529 11.4179L40.2087 8.79478C40.5726 8.42363 40.566 7.82373 40.1952 7.45951C39.8175 7.08836 39.2242 7.10155 38.8599 7.47269Z" fill="#003E83"/>
<path d="M45.2867 21.0614H41.5776C41.0584 21.0614 40.6336 21.4863 40.6336 22.0054C40.6336 22.5246 41.0584 22.9494 41.5776 22.9494H45.2867C45.8059 22.9494 46.2308 22.5246 46.2308 22.0054C46.2308 21.4797 45.8059 21.0614 45.2867 21.0614Z" fill="#003E83"/>
</svg>
