<svg width="52" height="52" viewBox="0 0 52 52" fill="none" xmlns="http://www.w3.org/2000/svg">
<mask id="mask0_2036_1004" style="mask-type:luminance" maskUnits="userSpaceOnUse" x="5" y="5" width="42" height="42">
<path d="M5 5H47V47H5V5Z" fill="white"/>
</mask>
<g mask="url(#mask0_2036_1004)">
<path d="M18.6984 35.9963C17.2719 35.9963 16.1152 34.8397 16.1152 33.414C16.1152 32.0851 17.1193 30.9908 18.4096 30.8464C18.5048 30.8366 18.6008 30.8308 18.6984 30.8308C20.1249 30.8308 21.2807 31.9875 21.2807 33.414C21.2807 34.6568 20.403 35.6945 19.2324 35.9405C19.0602 35.9775 18.8813 35.9963 18.6984 35.9963ZM33.3016 16.285C34.7281 16.285 35.8848 17.4417 35.8848 18.8682C35.8848 20.1881 34.8946 21.2758 33.6174 21.4317C33.5141 21.444 33.4082 21.4505 33.3016 21.4505C31.8751 21.4505 30.7193 20.2947 30.7193 18.8682C30.7193 17.6033 31.6273 16.5508 32.8283 16.3285C32.9817 16.2998 33.14 16.285 33.3016 16.285ZM44.4431 18.8682C41.5827 11.4739 34.4041 6.23047 26 6.23047C21.6335 6.23047 17.5975 7.64632 14.3261 10.0441C14.4918 10.3853 14.5854 10.7684 14.5854 11.1728C14.5854 12.5994 13.4287 13.756 12.0022 13.756C11.5445 13.756 11.1146 13.6371 10.7422 13.4287C9.40754 15.0464 8.32555 16.8789 7.55691 18.8682C6.69969 21.0806 6.23047 23.4857 6.23047 26C6.23047 28.6217 6.7407 31.1245 7.66766 33.414C10.6003 40.659 17.7034 45.7695 26 45.7695C30.3665 45.7695 34.4025 44.3537 37.6739 41.9559C37.5082 41.6146 37.4147 41.2316 37.4147 40.8271C37.4147 39.4006 38.5713 38.244 39.9978 38.244C40.4556 38.244 40.8854 38.3629 41.2578 38.5713C42.5293 37.0307 43.5711 35.2941 44.3323 33.414C45.2593 31.1245 45.7695 28.6217 45.7695 26C45.7695 23.4857 45.3003 21.0806 44.4431 18.8682Z" stroke="#003E83" stroke-width="2" stroke-miterlimit="10" stroke-linejoin="round"/>
<path d="M33.8274 26C33.8274 28.6217 33.6256 31.1245 33.2581 33.414C32.0974 40.659 29.2853 45.7695 26 45.7695C23.1116 45.7695 20.5892 41.8189 19.2324 35.9405C20.403 35.6945 21.2807 34.6568 21.2807 33.414C21.2807 31.9875 20.1249 30.8308 18.6984 30.8308C18.6007 30.8308 18.5048 30.8366 18.4096 30.8464C18.2546 29.296 18.1725 27.6718 18.1725 26C18.1725 23.4857 18.3588 21.0806 18.6975 18.8682C19.8304 11.4739 22.6728 6.23047 26 6.23047C28.9318 6.23047 31.4879 10.3017 32.8283 16.3285C31.6273 16.5508 30.7192 17.6033 30.7192 18.8682C30.7192 20.2947 31.875 21.4505 33.3016 21.4505C33.4082 21.4505 33.514 21.444 33.6174 21.4317C33.7544 22.8976 33.8274 24.4275 33.8274 26Z" stroke="#003E83" stroke-width="2" stroke-miterlimit="10" stroke-linejoin="round"/>
<path d="M35.8847 18.8682C35.8847 20.1881 34.8946 21.2758 33.6174 21.4317C33.514 21.444 33.4082 21.4506 33.3016 21.4506C31.8751 21.4506 30.7192 20.2947 30.7192 18.8682C30.7192 17.6033 31.6273 16.5508 32.8283 16.3285C32.9817 16.2998 33.14 16.2851 33.3016 16.2851C34.7281 16.2851 35.8847 17.4417 35.8847 18.8682Z" stroke="#003E83" stroke-width="2" stroke-miterlimit="10" stroke-linejoin="round"/>
<path d="M44.7072 18.8682H44.4431H35.8848" stroke="#003E83" stroke-width="2" stroke-miterlimit="10" stroke-linejoin="round"/>
<path d="M30.7193 18.8682H18.6976H7.55693H7.29279" stroke="#003E83" stroke-width="2" stroke-miterlimit="10" stroke-linejoin="round"/>
<path d="M44.7072 33.414H44.3324H33.2581H21.2808" stroke="#003E83" stroke-width="2" stroke-miterlimit="10" stroke-linejoin="round"/>
<path d="M16.1152 33.414H7.66767H7.29279" stroke="#003E83" stroke-width="2" stroke-miterlimit="10" stroke-linejoin="round"/>
<path d="M21.2807 33.414C21.2807 34.6568 20.403 35.6944 19.2324 35.9405C19.0602 35.9775 18.8813 35.9963 18.6984 35.9963C17.2719 35.9963 16.1152 34.8397 16.1152 33.414C16.1152 32.0851 17.1193 30.9908 18.4096 30.8464C18.5048 30.8366 18.6008 30.8308 18.6984 30.8308C20.1249 30.8308 21.2807 31.9875 21.2807 33.414Z" stroke="#003E83" stroke-width="2" stroke-miterlimit="10" stroke-linejoin="round"/>
<path d="M14.5853 11.1728C14.5853 12.5994 13.4287 13.756 12.0022 13.756C11.5444 13.756 11.1146 13.6371 10.7422 13.4287C9.95303 12.9866 9.41901 12.1416 9.41901 11.1728C9.41901 9.74632 10.5756 8.58968 12.0022 8.58968C13.0243 8.58968 13.9069 9.18277 14.3261 10.0441C14.4918 10.3853 14.5853 10.7684 14.5853 11.1728Z" stroke="#003E83" stroke-width="2" stroke-miterlimit="10" stroke-linejoin="round"/>
<path d="M42.581 40.8272C42.581 42.2537 41.4244 43.4103 39.9978 43.4103C38.9757 43.4103 38.0931 42.8172 37.6739 41.9559C37.5082 41.6147 37.4147 41.2316 37.4147 40.8272C37.4147 39.4006 38.5713 38.244 39.9978 38.244C40.4556 38.244 40.8854 38.3629 41.2578 38.5713C42.047 39.0134 42.581 39.8584 42.581 40.8272Z" stroke="#003E83" stroke-width="2" stroke-miterlimit="10" stroke-linejoin="round"/>
</g>
</svg>
