<svg width="52" height="52" viewBox="0 0 52 52" fill="none" xmlns="http://www.w3.org/2000/svg">
<g clip-path="url(#clip0_2036_927)">
<path d="M45.1628 27.7428C46.2278 27.0191 47.0326 25.973 47.4593 24.7581C47.8859 23.5433 47.9118 22.2236 47.5332 20.993C47.1546 19.7623 46.3914 18.6854 45.3557 17.9204C44.32 17.1554 43.0663 16.7426 41.7787 16.7426C40.4912 16.7426 39.2375 17.1554 38.2018 17.9204C37.1661 18.6854 36.4029 19.7623 36.0243 20.993C35.6457 22.2236 35.6716 23.5433 36.0982 24.7581C36.5249 25.973 37.3297 27.0191 38.3947 27.7428C37.2984 28.1265 36.2761 28.6954 35.3722 29.4247C33.8202 28.0707 31.9936 27.0687 30.0178 26.4875C31.6199 25.5978 32.8812 24.2012 33.6035 22.517C34.3259 20.8328 34.4685 18.9564 34.009 17.1823C33.5494 15.4083 32.5137 13.8371 31.0645 12.7155C29.6153 11.5939 27.8346 10.9853 26.002 10.9853C24.1695 10.9853 22.3888 11.5939 20.9395 12.7155C19.4903 13.8371 18.4546 15.4083 17.9951 17.1823C17.5355 18.9564 17.6781 20.8328 18.4005 22.517C19.1229 24.2012 20.3842 25.5978 21.9862 26.4875C20.0104 27.0687 18.1838 28.0707 16.6319 29.4247C15.728 28.6954 14.7056 28.1265 13.6094 27.7428C14.6756 27.0189 15.4816 25.9723 15.909 24.7565C16.3364 23.5408 16.3627 22.22 15.9841 20.9882C15.6054 19.7563 14.8418 18.6784 13.8053 17.9126C12.7688 17.1469 11.514 16.7336 10.2253 16.7336C8.93661 16.7336 7.68187 17.1469 6.64536 17.9126C5.60884 18.6784 4.84519 19.7563 4.46655 20.9882C4.0879 22.22 4.11422 23.5408 4.54164 24.7565C4.96906 25.9723 5.77505 27.0189 6.84125 27.7428C4.84575 28.4452 3.1167 29.7482 1.89171 31.473C0.666712 33.1977 0.00587482 35.2595 0 37.375C0 37.5905 0.0856024 37.7971 0.237976 37.9495C0.390349 38.1019 0.597012 38.1875 0.8125 38.1875C1.02799 38.1875 1.23465 38.1019 1.38702 37.9495C1.5394 37.7971 1.625 37.5905 1.625 37.375C1.62811 35.7715 2.07942 34.2008 2.92799 32.8403C3.77656 31.4798 4.98859 30.3835 6.42724 29.6754C7.86588 28.9673 9.47384 28.6755 11.0696 28.8329C12.6653 28.9903 14.1853 29.5907 15.4578 30.5662C13.0453 33.1935 11.7084 36.6315 11.7122 40.1984C11.7122 40.4139 11.7978 40.6206 11.9502 40.773C12.1025 40.9253 12.3092 41.0109 12.5247 41.0109C12.7402 41.0109 12.9468 40.9253 13.0992 40.773C13.2516 40.6206 13.3372 40.4139 13.3372 40.1984C13.3966 36.8799 14.7567 33.7173 17.1246 31.3914C19.4924 29.0656 22.6789 27.7624 25.998 27.7624C29.3171 27.7624 32.5035 29.0656 34.8714 31.3914C37.2393 33.7173 38.5993 36.8799 38.6588 40.1984C38.6588 40.4139 38.7444 40.6206 38.8967 40.773C39.0491 40.9253 39.2558 41.0109 39.4713 41.0109C39.6867 41.0109 39.8934 40.9253 40.0458 40.773C40.1981 40.6206 40.2838 40.4139 40.2838 40.1984C40.2876 36.6315 38.9506 33.1935 36.5381 30.5662C37.8107 29.5895 39.331 28.9881 40.9274 28.8301C42.5238 28.672 44.1325 28.9636 45.5719 29.6719C47.0112 30.3801 48.2238 31.4769 49.0726 32.8381C49.9213 34.1993 50.3725 35.7708 50.375 37.375C50.375 37.5905 50.4606 37.7971 50.613 37.9495C50.7653 38.1019 50.972 38.1875 51.1875 38.1875C51.403 38.1875 51.6097 38.1019 51.762 37.9495C51.9144 37.7971 52 37.5905 52 37.375C51.9944 35.26 51.3342 33.1986 50.11 31.4739C48.8857 29.7492 47.1576 28.4458 45.1628 27.7428ZM5.82562 22.75C5.82803 21.8803 6.08812 21.0309 6.57302 20.309C7.05793 19.5871 7.74591 19.025 8.55005 18.6939C9.3542 18.3628 10.2384 18.2774 11.0911 18.4485C11.9437 18.6197 12.7266 19.0396 13.3406 19.6554C13.9547 20.2712 14.3726 21.0552 14.5413 21.9083C14.7101 22.7614 14.6223 23.6454 14.2889 24.4487C13.9556 25.2519 13.3916 25.9383 12.6684 26.4212C11.9451 26.9041 11.095 27.1619 10.2253 27.1619C9.64666 27.1613 9.07379 27.0468 8.53944 26.8247C8.00509 26.6027 7.51974 26.2775 7.11114 25.8677C6.70254 25.458 6.3787 24.9718 6.15812 24.4368C5.93754 23.9018 5.82456 23.3286 5.82562 22.75ZM19.3538 19.2481C19.357 17.9343 19.7495 16.6509 20.4817 15.5601C21.214 14.4693 22.2531 13.6199 23.4678 13.1194C24.6826 12.6188 26.0184 12.4895 27.3066 12.7478C28.5947 13.0061 29.7775 13.6404 30.7053 14.5705C31.6332 15.5006 32.2646 16.6849 32.5197 17.9737C32.7748 19.2625 32.6423 20.598 32.1388 21.8115C31.6353 23.025 30.7834 24.0621 29.6908 24.7916C28.5982 25.5212 27.3138 25.9106 26 25.9106C24.238 25.9085 22.5487 25.2075 21.3028 23.9616C20.0568 22.7157 19.3559 21.0264 19.3538 19.2644V19.2481ZM37.375 22.75C37.375 21.8798 37.633 21.0292 38.1165 20.3057C38.5999 19.5821 39.2871 19.0182 40.091 18.6852C40.8949 18.3522 41.7796 18.2651 42.633 18.4348C43.4865 18.6046 44.2704 19.0236 44.8857 19.6389C45.501 20.2542 45.9201 21.0382 46.0898 21.8917C46.2596 22.7451 46.1725 23.6297 45.8395 24.4337C45.5065 25.2376 44.9425 25.9248 44.219 26.4082C43.4955 26.8916 42.6449 27.1497 41.7747 27.1497C40.6082 27.1486 39.4897 26.6847 38.6648 25.8599C37.84 25.035 37.3761 23.9165 37.375 22.75Z" fill="#003E83" stroke="#003E83" stroke-width="0.25"/>
</g>
<defs>
<clipPath id="clip0_2036_927">
<rect width="52" height="52" fill="white"/>
</clipPath>
</defs>
</svg>
