<svg width="25" height="24" viewBox="0 0 25 24" fill="none" xmlns="http://www.w3.org/2000/svg">
<g clip-path="url(#clip0_2219_1506)">
<path d="M23.0938 2.85938H7.625C6.84955 2.85938 6.21875 3.49017 6.21875 4.26562H1.20312C0.814758 4.26562 0.5 4.58038 0.5 4.96875V20.4375C0.5 20.8259 0.814758 21.1406 1.20312 21.1406H8.23438C8.62274 21.1406 8.9375 20.8259 8.9375 20.4375V16.9219H12.5469V19.7344H11.1406C10.7523 19.7344 10.4375 20.0491 10.4375 20.4375C10.4375 20.8259 10.7523 21.1406 11.1406 21.1406H19.5781C19.9665 21.1406 20.2812 20.8259 20.2812 20.4375C20.2812 20.0491 19.9665 19.7344 19.5781 19.7344H18.1719V16.9219H23.0938C23.8692 16.9219 24.5 16.2911 24.5 15.5156V4.26562C24.5 3.49017 23.8692 2.85938 23.0938 2.85938ZM1.90625 8.48438H6.21875V9.89062H1.90625V8.48438ZM6.21875 5.67188V7.07812H1.90625V5.67188H6.21875ZM1.90625 19.7344V11.2969H6.21875V15.5156C6.21875 16.2594 6.79938 16.8699 7.53125 16.9184V19.7344H1.90625ZM16.7656 19.7344H13.9531V16.9219H16.7656V19.7344ZM23.0938 15.5156H7.625V4.26562H23.0938V15.5156Z" fill="#003E83"/>
<path d="M5.42188 18.1406C5.42188 18.529 5.10712 18.8438 4.71875 18.8438C4.33038 18.8438 4.01562 18.529 4.01562 18.1406C4.01562 17.7523 4.33038 17.4375 4.71875 17.4375C5.10712 17.4375 5.42188 17.7523 5.42188 18.1406Z" fill="#003E83"/>
</g>
<defs>
<clipPath id="clip0_2219_1506">
<rect width="24" height="24" fill="white" transform="translate(0.5)"/>
</clipPath>
</defs>
</svg>
