<svg width="52" height="52" viewBox="0 0 52 52" fill="none" xmlns="http://www.w3.org/2000/svg">
<g clip-path="url(#clip0_2036_1359)">
<path d="M9.53333 48.5333C9.79613 48.5333 10.045 48.4136 10.2091 48.2083C10.5735 47.7576 19.0667 37.1004 19.0667 32.0667C19.0667 26.8015 14.7985 22.5333 9.53333 22.5333C4.26816 22.5333 0 26.8015 0 32.0667C0 37.1004 8.49317 47.7534 8.85752 48.2083C9.02171 48.4136 9.27054 48.5333 9.53333 48.5333ZM9.53333 24.2667C13.8392 24.2713 17.3287 27.7608 17.3333 32.0667C17.3333 35.4292 12.2104 42.7819 9.53333 46.2617C6.85632 42.7832 1.73333 35.4309 1.73333 32.0667C1.73799 27.7608 5.22751 24.2713 9.53333 24.2667Z" fill="#003E83"/>
<path d="M13 31.2C13 29.2856 11.4478 27.7333 9.53333 27.7333C7.61888 27.7333 6.06667 29.2856 6.06667 31.2C6.06667 33.1145 7.61888 34.6667 9.53333 34.6667C11.4478 34.6667 13 33.1145 13 31.2ZM7.8 31.2C7.8 30.2428 8.57611 29.4667 9.53333 29.4667C10.4906 29.4667 11.2667 30.2428 11.2667 31.2C11.2667 32.1572 10.4906 32.9333 9.53333 32.9333C8.57611 32.9333 7.8 32.1572 7.8 31.2Z" fill="#003E83"/>
<path d="M45.0667 18.2C45.3193 18.2 45.5588 18.09 45.7234 17.8983C46.3667 17.1522 52 10.5024 52 6.93333C52 3.104 48.896 0 45.0667 0C41.2373 0 38.1333 3.104 38.1333 6.93333C38.1333 10.5024 43.7667 17.1522 44.4099 17.8983C44.5745 18.09 44.814 18.2 45.0667 18.2ZM45.0667 1.73333C47.9375 1.7363 50.2637 4.0625 50.2667 6.93333C50.2667 9.12962 46.9578 13.6551 45.0667 15.9804C43.1746 13.6551 39.8667 9.13385 39.8667 6.93333C39.8696 4.0625 42.1958 1.7363 45.0667 1.73333Z" fill="#003E83"/>
<path d="M47.6667 6.06667C47.6667 4.63083 46.5025 3.46667 45.0667 3.46667C43.6308 3.46667 42.4667 4.63083 42.4667 6.06667C42.4667 7.50251 43.6308 8.66667 45.0667 8.66667C46.5025 8.66667 47.6667 7.50251 47.6667 6.06667ZM44.2 6.06667C44.2 5.58806 44.5881 5.20001 45.0667 5.20001C45.5453 5.20001 45.9333 5.58806 45.9333 6.06667C45.9333 6.54529 45.5453 6.93334 45.0667 6.93334C44.5881 6.93334 44.2 6.54529 44.2 6.06667Z" fill="#003E83"/>
<path d="M44.2 21.6667H45.0667C45.5453 21.6667 45.9333 21.2786 45.9333 20.8C45.9333 20.3214 45.5453 19.9333 45.0667 19.9333H44.2C43.7214 19.9333 43.3333 20.3214 43.3333 20.8C43.3333 21.2786 43.7214 21.6667 44.2 21.6667Z" fill="#003E83"/>
<path d="M32.9333 26.8667H34.6857C35.1643 26.8667 35.5524 26.4786 35.5524 26C35.5524 25.5214 35.1643 25.1334 34.6857 25.1334H32.9194C32.6904 25.1338 32.4708 25.2256 32.3096 25.3881C32.1483 25.5506 32.0582 25.7711 32.0599 26C32.0629 26.4799 32.4535 26.8671 32.9333 26.8667Z" fill="#003E83"/>
<path d="M42.6495 26C42.6495 26.4786 43.0375 26.8667 43.5161 26.8667H45.2816C45.7603 26.8667 46.1483 26.4786 46.1483 26C46.1483 25.5214 45.7603 25.1334 45.2816 25.1334H43.5161C43.0375 25.1334 42.6495 25.5214 42.6495 26Z" fill="#003E83"/>
<path d="M38.9023 21.6667H40.6682C41.1468 21.6667 41.5348 21.2786 41.5348 20.8C41.5348 20.3214 41.1468 19.9333 40.6682 19.9333H38.9023C38.4232 19.9333 38.0356 20.3214 38.0356 20.8C38.0356 21.2786 38.4232 21.6667 38.9023 21.6667Z" fill="#003E83"/>
<path d="M15.7862 50.2667H14.0199C13.5412 50.2667 13.1532 50.6547 13.1532 51.1333C13.1532 51.6119 13.5412 52 14.0199 52H15.7862C16.2648 52 16.6529 51.6119 16.6529 51.1333C16.6529 50.6547 16.2648 50.2667 15.7862 50.2667Z" fill="#003E83"/>
<path d="M30.3879 24.8041C30.4484 24.8041 30.5085 24.7978 30.5673 24.7851C31.0354 24.6865 31.335 24.2278 31.2372 23.7597C31.2127 23.6412 31.2004 23.521 31.2 23.4C31.1996 23.1258 31.2643 22.8558 31.3887 22.6112C31.6058 22.1847 31.4361 21.6629 31.0091 21.4458C30.5826 21.2287 30.0608 21.3984 29.8437 21.8254C29.4844 22.5308 29.3778 23.3387 29.5411 24.1135C29.6245 24.5147 29.9779 24.8033 30.3879 24.8041Z" fill="#003E83"/>
<path d="M38.2201 26.8667H39.9864C40.465 26.8667 40.8531 26.4786 40.8531 26C40.8531 25.5214 40.465 25.1334 39.9864 25.1334H38.2201C37.7415 25.1334 37.3534 25.5214 37.3534 26C37.3534 26.4786 37.7415 26.8667 38.2201 26.8667Z" fill="#003E83"/>
<path d="M33.6041 21.6667H35.3704C35.849 21.6667 36.2371 21.2786 36.2371 20.8C36.2371 20.3214 35.849 19.9333 35.3704 19.9333H33.6041C33.1255 19.9333 32.7374 20.3214 32.7374 20.8C32.7374 21.2786 33.1255 21.6667 33.6041 21.6667Z" fill="#003E83"/>
<path d="M25.0398 36.7267C25.1084 36.7445 25.1795 36.7529 25.2501 36.7529C25.6479 36.7521 25.9941 36.4812 26.0901 36.0957C26.2023 35.6501 26.4135 35.2354 26.708 34.8825C26.9162 34.6463 26.9797 34.3163 26.8747 34.02C26.7698 33.7234 26.5121 33.5072 26.2019 33.4547C25.8921 33.4026 25.5777 33.5224 25.3813 33.7678C24.9171 34.3218 24.5845 34.9735 24.4089 35.6747C24.3526 35.8977 24.3877 36.1342 24.5062 36.3314C24.6243 36.5291 24.8164 36.6712 25.0398 36.7267Z" fill="#003E83"/>
<path d="M42.1616 50.2303C41.9754 50.2548 41.7879 50.2671 41.6 50.2667H40.509C40.03 50.2667 39.6424 50.6547 39.6424 51.1333C39.6424 51.6119 40.03 52 40.509 52H41.6C41.8607 52 42.1214 51.9831 42.3799 51.9496C42.8547 51.8883 43.1899 51.4537 43.1289 50.9789C43.0676 50.5041 42.633 50.1689 42.1582 50.2303H42.1616Z" fill="#003E83"/>
<path d="M43.3689 40.1265C42.7955 39.953 42.1992 39.8654 41.6 39.8667H41.3728C40.8941 39.8667 40.5061 40.2547 40.5061 40.7333C40.5061 41.2119 40.8941 41.6 41.3728 41.6H41.6C42.0283 41.6 42.4544 41.663 42.8645 41.787C42.9461 41.8124 43.0312 41.8251 43.1167 41.8251C43.5462 41.8255 43.9114 41.5111 43.9749 41.0862C44.0379 40.661 43.7802 40.2539 43.3689 40.1294V40.1265Z" fill="#003E83"/>
<path d="M41.5204 33.8C41.9991 33.8 42.3871 33.4119 42.3871 32.9333C42.3871 32.4547 41.9991 32.0667 41.5204 32.0667H39.7549C39.2763 32.0667 38.8883 32.4547 38.8883 32.9333C38.8883 33.4119 39.2763 33.8 39.7549 33.8H41.5204Z" fill="#003E83"/>
<path d="M46.6993 47.2756C46.2634 47.0793 45.7505 47.2731 45.5537 47.709C45.3519 48.1571 45.0747 48.5676 44.7349 48.9226C44.5123 49.1448 44.4277 49.4698 44.5136 49.772C44.5995 50.0745 44.8424 50.3069 45.1479 50.3788C45.4539 50.4512 45.7751 50.3521 45.9871 50.1202C46.4636 49.6234 46.8521 49.0483 47.1347 48.4208C47.3302 47.9845 47.1356 47.472 46.6993 47.2756Z" fill="#003E83"/>
<path d="M51.2383 29.619C51.0178 29.5538 50.7804 29.5788 50.5781 29.6888C50.3763 29.7989 50.226 29.9846 50.1609 30.2051C50.0335 30.63 49.8008 31.0159 49.4842 31.3265C49.1419 31.6617 49.1359 32.2106 49.4711 32.5529C49.8063 32.8953 50.3551 32.9008 50.6975 32.566C51.2256 32.0485 51.6132 31.4052 51.824 30.6964C51.8896 30.476 51.8642 30.2385 51.7546 30.0363C51.6445 29.8344 51.4588 29.6842 51.2383 29.619Z" fill="#003E83"/>
<path d="M50.2493 28.0194C50.5917 28.0198 50.9019 27.8184 51.0415 27.5061C51.1807 27.1938 51.1236 26.8286 50.8951 26.5738C50.4004 26.0237 49.7741 25.6085 49.075 25.3673C48.6222 25.2116 48.1292 25.4528 47.9735 25.9056C47.8177 26.3584 48.059 26.8514 48.5118 27.0071C48.9315 27.1514 49.3073 27.4007 49.6036 27.7316C49.7682 27.9149 50.003 28.0194 50.2493 28.0194Z" fill="#003E83"/>
<path d="M37.8413 39.8667H36.0758C35.5972 39.8667 35.2092 40.2548 35.2092 40.7334C35.2092 41.212 35.5972 41.6 36.0758 41.6H37.8413C38.32 41.6 38.708 41.212 38.708 40.7334C38.708 40.2548 38.32 39.8667 37.8413 39.8667Z" fill="#003E83"/>
<path d="M46.8182 32.0667H45.0519C44.5732 32.0667 44.1852 32.4547 44.1852 32.9333C44.1852 33.4119 44.5732 33.8 45.0519 33.8H46.8182C47.2968 33.8 47.6849 33.4119 47.6849 32.9333C47.6849 32.4547 47.2968 32.0667 46.8182 32.0667Z" fill="#003E83"/>
<path d="M21.0835 50.2667H19.318C18.8394 50.2667 18.4514 50.6547 18.4514 51.1333C18.4514 51.6119 18.8394 52 19.318 52H21.0835C21.5621 52 21.9502 51.6119 21.9502 51.1333C21.9502 50.6547 21.5621 50.2667 21.0835 50.2667Z" fill="#003E83"/>
<path d="M46.6206 42.5272C46.3502 42.1315 45.8102 42.0299 45.4141 42.3003C45.0184 42.5707 44.9169 43.1107 45.1873 43.5068C45.464 43.9122 45.6693 44.362 45.7937 44.8369C45.8614 45.147 46.0933 45.3954 46.3984 45.4843C46.7031 45.5732 47.0319 45.4881 47.2558 45.2626C47.4792 45.0374 47.5617 44.7078 47.4707 44.4035C47.2972 43.7341 47.0099 43.0993 46.6206 42.5272Z" fill="#003E83"/>
<path d="M27.6919 39.5556C27.2801 39.3504 26.92 39.0559 26.6369 38.6932C26.3432 38.3149 25.7986 38.2467 25.4207 38.5404C25.0424 38.8337 24.9742 39.3783 25.2675 39.7566C25.7114 40.3262 26.2776 40.7888 26.9246 41.1095C27.3516 41.3089 27.8599 41.1303 28.0685 40.7075C28.2771 40.2852 28.1095 39.7731 27.6919 39.5556Z" fill="#003E83"/>
<path d="M26.3813 50.2667H24.6132C24.1346 50.2667 23.7466 50.6547 23.7466 51.1333C23.7466 51.6119 24.1346 52 24.6132 52H26.3813C26.8599 52 27.2479 51.6119 27.2479 51.1333C27.2479 50.6547 26.8599 50.2667 26.3813 50.2667Z" fill="#003E83"/>
<path d="M36.9772 50.2667H35.2117C34.7331 50.2667 34.3451 50.6547 34.3451 51.1333C34.3451 51.6119 34.7331 52 35.2117 52H36.9772C37.4558 52 37.8439 51.6119 37.8439 51.1333C37.8439 50.6547 37.4558 50.2667 36.9772 50.2667Z" fill="#003E83"/>
<path d="M30.9254 33.8C31.404 33.8 31.792 33.4119 31.792 32.9333C31.792 32.4547 31.404 32.0667 30.9254 32.0667H29.1599C28.6813 32.0667 28.2932 32.4547 28.2932 32.9333C28.2932 33.4119 28.6813 33.8 29.1599 33.8H30.9254Z" fill="#003E83"/>
<path d="M36.2265 33.8C36.7051 33.8 37.0932 33.4119 37.0932 32.9333C37.0932 32.4547 36.7051 32.0667 36.2265 32.0667H34.4568C33.9782 32.0667 33.5901 32.4547 33.5901 32.9333C33.5901 33.4119 33.9782 33.8 34.4568 33.8H36.2265Z" fill="#003E83"/>
<path d="M32.544 39.8667H30.7781C30.2995 39.8667 29.9114 40.2548 29.9114 40.7334C29.9114 41.212 30.2995 41.6 30.7781 41.6H32.544C33.023 41.6 33.4107 41.212 33.4107 40.7334C33.4107 40.2548 33.023 39.8667 32.544 39.8667Z" fill="#003E83"/>
<path d="M31.6803 50.2667H29.914C29.4354 50.2667 29.0473 50.6547 29.0473 51.1333C29.0473 51.6119 29.4354 52 29.914 52H31.6803C32.1589 52 32.547 51.6119 32.547 51.1333C32.547 50.6547 32.1589 50.2667 31.6803 50.2667Z" fill="#003E83"/>
<path d="M10.4 50.2667H9.53333C9.05472 50.2667 8.66666 50.6547 8.66666 51.1333C8.66666 51.6119 9.05472 52 9.53333 52H10.4C10.8786 52 11.2667 51.6119 11.2667 51.1333C11.2667 50.6547 10.8786 50.2667 10.4 50.2667Z" fill="#003E83"/>
</g>
<defs>
<clipPath id="clip0_2036_1359">
<rect width="52" height="52" fill="white"/>
</clipPath>
</defs>
</svg>
