<svg width="24" height="24" viewBox="0 0 24 24" fill="none" xmlns="http://www.w3.org/2000/svg">
<g clip-path="url(#clip0_2219_1633)">
<path d="M15.5625 4.26562C14.1487 4.26562 4.51996 4.26562 2.8125 4.26562C2.03705 4.26562 1.40625 3.63483 1.40625 2.85938C1.40625 2.70612 1.66443 2.34192 2.37579 1.96619C3.07178 1.59851 3.85327 1.40625 4.26562 1.40625H10.5938C10.9821 1.40625 11.2969 1.09149 11.2969 0.703125C11.2969 0.314758 10.9821 0 10.5938 0H4.26562C2.96265 0 0 1.08032 0 2.85938C0 4.41028 1.2616 5.67188 2.8125 5.67188H4.29785C4.34161 6.15472 4.42932 6.62476 4.55804 7.07812H3.51562C3.12726 7.07812 2.8125 7.39288 2.8125 7.78125C2.8125 8.16962 3.12726 8.48438 3.51562 8.48438H4.96875C5.01544 8.48438 5.06104 8.47961 5.10516 8.47101C6.38507 10.9805 8.99506 12.7031 12 12.7031H14.4029C15.8177 12.7031 16.9688 13.8752 16.9688 15.3159C16.9688 16.9686 15.6956 17.4159 12.5934 19.6119C12.2043 18.0941 10.825 16.9688 9.1875 16.9688H6.375C5.98663 16.9688 5.67188 17.2835 5.67188 17.6719C5.67188 18.8207 6.22577 19.8424 7.08051 20.4844C6.22577 21.1263 5.67188 22.1481 5.67188 23.2969C5.67188 23.6852 5.98663 24 6.375 24H9.1875C10.8853 24 12.3058 22.7902 12.6324 21.1875H15.5625C20.2264 21.1875 24 17.3692 24 12.7031C24 8.05115 20.2148 4.26562 15.5625 4.26562ZM9.1875 22.5938H7.19861C7.48883 21.7753 8.27087 21.187 9.1875 21.187H11.1764C10.8862 22.0054 10.1041 22.5938 9.1875 22.5938ZM9.1875 19.7812C8.27087 19.7812 7.48883 19.1935 7.19861 18.375H9.1875C10.1041 18.375 10.8862 18.9628 11.1764 19.7812H9.1875ZM12.75 11.2969H12C8.74841 11.2969 6.06152 8.83154 5.71069 5.67188H12.75V11.2969ZM16.5641 11.9496C15.925 11.5252 15.1807 11.2969 14.4029 11.2969H14.1562V5.67188H15.5625C17.3754 5.67188 19.0303 6.36163 20.2786 7.49249L16.5641 11.9496ZM15.5625 19.7812H14.8297C16.6697 18.5416 17.9614 17.712 18.29 16.1689L21.1553 16.9876C19.8695 18.6843 17.8411 19.7812 15.5625 19.7812ZM21.9122 15.7414L18.3307 14.7182C18.2338 14.0669 17.9788 13.4526 17.5851 12.9212L21.2302 8.54718C22.0869 9.7121 22.5938 11.1495 22.5938 12.7031C22.5938 13.79 22.3489 14.8202 21.9122 15.7414Z" fill="#003E83"/>
<path d="M9.89062 7.78125C9.89062 8.16962 9.57587 8.48438 9.1875 8.48438C8.79913 8.48438 8.48438 8.16962 8.48438 7.78125C8.48438 7.39288 8.79913 7.07812 9.1875 7.07812C9.57587 7.07812 9.89062 7.39288 9.89062 7.78125Z" fill="#003E83"/>
</g>
<defs>
<clipPath id="clip0_2219_1633">
<rect width="24" height="24" fill="white"/>
</clipPath>
</defs>
</svg>
