<svg width="24" height="24" viewBox="0 0 24 24" fill="none" xmlns="http://www.w3.org/2000/svg">
<path d="M17.8594 13.4062C17.8594 11.08 15.9668 9.1875 13.6406 9.1875C13.212 9.1875 12.7983 9.25195 12.4083 9.3713C12.1749 8.70675 11.9637 7.99955 11.7896 7.20844C13.0314 6.00042 14.1094 4.49648 14.1094 2.10938C14.1094 0.946266 13.1631 0 12 0C10.8369 0 9.89067 0.946219 9.89062 2.10933C9.89062 3.92541 10.0309 5.42198 10.2597 6.70941C10.0668 6.88017 9.86831 7.05108 9.66633 7.22489C8.0137 8.64731 6.14062 10.2595 6.14062 13.4062C6.14062 16.6371 8.76914 19.2656 12 19.2656C12.6877 19.2656 13.3478 19.1462 13.9614 18.9276C14.0561 19.8054 14.1094 20.7822 14.1094 21.8906C14.1094 22.2783 13.794 22.5938 13.4062 22.5938C13.0185 22.5938 12.7031 22.2783 12.7031 21.8906V20.4844H11.2969V21.8906C11.2969 23.0537 12.2431 24 13.4062 24C14.5694 24 15.5156 23.0537 15.5156 21.8906C15.5156 20.5078 15.4342 19.3104 15.2944 18.2492C16.8416 17.1934 17.8594 15.4165 17.8594 13.4062ZM12.0563 12.2758C12.3807 13.0364 12.6996 13.784 12.9857 14.5941C12.7681 14.7322 12.5106 14.8125 12.2344 14.8125C11.459 14.8125 10.8281 14.1817 10.8281 13.4062C10.8281 12.6163 11.156 11.9017 11.6822 11.3904C11.8062 11.6893 11.9315 11.9832 12.0563 12.2758ZM12 1.40625C12.3877 1.40625 12.7031 1.72167 12.7031 2.10938C12.7031 3.57502 12.2197 4.5975 11.492 5.47523C11.3679 4.49564 11.2969 3.39019 11.2969 2.10938C11.2969 1.72167 11.6123 1.40625 12 1.40625ZM12 17.8594C9.54455 17.8594 7.54688 15.8617 7.54688 13.4062C7.54688 10.9045 8.95416 9.69328 10.5837 8.29073C10.59 8.2853 10.5964 8.27981 10.6027 8.27433C10.7657 8.89523 10.9487 9.46716 11.1432 10.0084C10.1001 10.7771 9.42188 12.0139 9.42188 13.4062C9.42188 14.9571 10.6836 16.2188 12.2344 16.2188C12.6549 16.2188 13.0539 16.1253 13.4125 15.9592C13.5424 16.4388 13.6587 16.9478 13.7575 17.4976C13.218 17.7302 12.6238 17.8594 12 17.8594ZM15.0263 16.6698C14.8967 16.0529 14.7468 15.4845 14.583 14.9509C14.8758 14.5072 15.0469 13.9764 15.0469 13.4062H14.0444C13.8191 12.8243 13.5836 12.2722 13.3499 11.7241C13.2026 11.3789 13.0565 11.0363 12.9141 10.6894C13.146 10.6273 13.3894 10.5938 13.6406 10.5938C15.1914 10.5938 16.4531 11.8554 16.4531 13.4062C16.4531 14.6942 15.9033 15.856 15.0263 16.6698Z" fill="#003E83"/>
</svg>
