<svg width="25" height="24" viewBox="0 0 25 24" fill="none" xmlns="http://www.w3.org/2000/svg">
<mask id="mask0_2219_1739" style="mask-type:luminance" maskUnits="userSpaceOnUse" x="0" y="0" width="25" height="24">
<path d="M1.25 23.25V0.75H23.75V23.25H1.25Z" fill="white" stroke="#003E83" stroke-width="1.5"/>
</mask>
<g mask="url(#mask0_2219_1739)">
<path d="M9.48695 1.33731V4.4205L9.12791 4.93589C8.64422 5.63004 8.41787 6.47169 8.4916 7.31455C8.51754 7.61103 8.56343 7.92239 8.64065 8.21779C8.97513 9.49774 9.11148 10.8213 8.99666 12.1393L8.97434 12.3954C8.97434 12.3954 9.65218 14.6962 12.5001 14.6962C15.3479 14.6962 16.0257 12.3954 16.0257 12.3954L16.0034 12.1393C15.8886 10.8213 16.025 9.49774 16.3595 8.21779C16.4366 7.92239 16.4825 7.61103 16.5085 7.31455C16.5822 6.47169 16.3558 5.63004 15.8722 4.93589L15.5131 4.4205V1.33731" stroke="#003E83" stroke-width="1.5" stroke-miterlimit="10"/>
<path d="M8.97432 12.3954L3.29056 9.87172L2.75667 10.995C2.39642 11.753 2.41766 12.6351 2.80638 13.3788C2.93442 13.6239 3.05131 13.8681 3.10778 14.1166C3.27446 14.8498 2.98185 15.7412 3.30094 16.4026C3.62533 17.075 4.50799 17.4002 4.96919 17.9778C5.43259 18.5581 5.55483 19.4903 6.1352 19.9537C6.71275 20.4149 7.64793 20.3282 8.3203 20.6526C8.98179 20.9717 9.49502 21.76 10.2282 21.9267C10.9383 22.0881 11.7411 21.6042 12.5 21.6042C13.2589 21.6042 14.0618 22.0881 14.7718 21.9267C15.505 21.76 16.0182 20.9717 16.6797 20.6526C17.3521 20.3282 18.2873 20.4149 18.8648 19.9537C19.4452 19.4903 19.5674 18.5581 20.0308 17.9778C20.492 17.4002 21.3747 17.075 21.699 16.4026C22.0182 15.7412 21.7256 14.8498 21.8922 14.1166C21.9487 13.8681 22.0656 13.6239 22.1936 13.3788C22.5824 12.6351 22.6036 11.753 22.2434 10.995L21.7095 9.87172L16.0257 12.3954" stroke="#003E83" stroke-width="1.5" stroke-miterlimit="10"/>
<path d="M15.5131 4.42047C15.5131 4.42047 14.4994 5.66528 12.4997 5.66528C10.5 5.66528 9.48697 4.42047 9.48697 4.42047" stroke="#003E83" stroke-width="1.5" stroke-miterlimit="10"/>
<path d="M12.5 14.6962V21.6042" stroke="#003E83" stroke-width="1.5" stroke-miterlimit="10"/>
<path d="M13.9862 14.4475L16.6797 20.6526" stroke="#003E83" stroke-width="1.5" stroke-miterlimit="10"/>
<path d="M20.0309 17.9778L15.2365 13.6449" stroke="#003E83" stroke-width="1.5" stroke-miterlimit="10"/>
<path d="M21.8922 14.1166L16.0257 12.3954" stroke="#003E83" stroke-width="1.5" stroke-miterlimit="10"/>
<path d="M11.0139 14.4475L8.32031 20.6526" stroke="#003E83" stroke-width="1.5" stroke-miterlimit="10"/>
<path d="M4.96918 17.9778L9.76356 13.6449" stroke="#003E83" stroke-width="1.5" stroke-miterlimit="10"/>
<path d="M3.10779 14.1166L8.97432 12.3954" stroke="#003E83" stroke-width="1.5" stroke-miterlimit="10"/>
</g>
</svg>
