<svg width="24" height="24" viewBox="0 0 24 24" fill="none" xmlns="http://www.w3.org/2000/svg">
<g clip-path="url(#clip0_2219_1792)">
<path d="M23.7209 5.86112C23.5452 5.72827 23.3173 5.68538 23.1053 5.74538L13.1678 8.55787C12.8651 8.64356 12.6562 8.91984 12.6562 9.23442V18.7534C12.2421 18.5132 11.762 18.375 11.2499 18.375C9.69912 18.375 8.43744 19.6367 8.43744 21.1875C8.43744 22.7383 9.69912 24 11.2499 24C12.8007 24 14.0624 22.7383 14.0624 21.1875C14.0624 21.1145 14.0624 12.5787 14.0624 12.5787L22.5936 10.1641V15.9409C22.1796 15.7007 21.6995 15.5625 21.1874 15.5625C19.6366 15.5625 18.3749 16.8242 18.3749 18.375C18.3749 19.9258 19.6366 21.1875 21.1874 21.1875C22.7382 21.1875 23.9999 19.9258 23.9999 18.375C23.9999 18.3126 23.9999 6.42193 23.9999 6.42193C23.9999 6.20161 23.8966 5.99401 23.7209 5.86112ZM11.25 22.5937C10.4746 22.5937 9.84373 21.9629 9.84373 21.1875C9.84373 20.4121 10.4746 19.7812 11.25 19.7812C12.0254 19.7812 12.6562 20.4121 12.6562 21.1875C12.6562 21.9629 12.0254 22.5937 11.25 22.5937ZM21.1874 19.7812C20.412 19.7812 19.7812 19.1504 19.7812 18.375C19.7812 17.5996 20.412 16.9688 21.1874 16.9688C21.9628 16.9688 22.5937 17.5996 22.5937 18.375C22.5937 19.1504 21.9628 19.7812 21.1874 19.7812ZM22.5937 8.70271L14.0625 11.1172V9.76616L22.5937 7.35169V8.70271Z" fill="#003E83"/>
<path d="M9.81115 4.99126C8.25115 3.8477 7.1083 2.71511 6.31733 1.52866L5.50691 0.313152C5.33502 0.0553401 5.01464 -0.0595501 4.71815 0.0302152C4.42162 0.120027 4.21879 0.393354 4.21879 0.703197V11.7222C3.80475 11.482 3.32466 11.3438 2.81255 11.3438C1.26174 11.3438 6.10352e-05 12.6055 6.10352e-05 14.1563C6.10352e-05 15.7071 1.26174 16.9688 2.81255 16.9688C4.36336 16.9688 5.62504 15.7071 5.62504 14.1563V2.97161C6.46536 4.05437 7.56983 5.09195 8.97973 6.12549C9.52076 6.52205 9.84377 7.15856 9.84377 7.82822C9.84377 8.99132 8.89751 9.93758 7.73441 9.93758C7.3461 9.93758 7.03128 10.2524 7.03128 10.6407C7.03128 11.029 7.3461 11.3438 7.73441 11.3438C9.67291 11.3438 11.25 9.76668 11.25 7.82817C11.25 6.71222 10.7121 5.65168 9.81115 4.99126ZM2.81255 15.5625C2.03715 15.5625 1.40631 14.9317 1.40631 14.1563C1.40631 13.3809 2.03715 12.75 2.81255 12.75C3.58795 12.75 4.21879 13.3809 4.21879 14.1563C4.21879 14.9317 3.58795 15.5625 2.81255 15.5625Z" fill="#003E83"/>
</g>
<defs>
<clipPath id="clip0_2219_1792">
<rect width="24" height="24" fill="white"/>
</clipPath>
</defs>
</svg>
