<svg width="52" height="52" viewBox="0 0 52 52" fill="none" xmlns="http://www.w3.org/2000/svg">
<g clip-path="url(#clip0_2036_1243)">
<path d="M12.766 12.7963C12.2054 12.7963 11.7504 13.2513 11.7504 13.8119C11.7504 14.3725 12.2054 14.8275 12.766 14.8275C13.3266 14.8275 13.7816 14.3725 13.7816 13.8119C13.7816 13.2513 13.3266 12.7963 12.766 12.7963Z" fill="#003E83"/>
<path d="M21.9061 31.7874H18.8594V28.7408C18.8594 28.1799 18.4046 27.7251 17.8438 27.7251C17.283 27.7251 16.8283 28.1799 16.8283 28.7408V31.7874H13.7816C13.2208 31.7874 12.766 32.2422 12.766 32.803C12.766 33.3637 13.2208 33.8186 13.7816 33.8186H16.8283V36.8653C16.8283 37.4261 17.2831 37.8809 17.8438 37.8809C18.4045 37.8809 18.8594 37.4261 18.8594 36.8653V33.8186H21.9061C22.4669 33.8186 22.9217 33.3638 22.9217 32.803C22.9217 32.2421 22.467 31.7874 21.9061 31.7874Z" fill="#003E83"/>
<path d="M49.3165 32.7015C47.0715 28.8131 42.1075 27.4823 38.2184 29.7278L34.0931 32.1095V23.2902C34.0931 22.1999 33.7326 21.118 33.0776 20.2435L27.9998 13.4733V10.5903C29.1817 10.1711 30.0309 9.04231 30.0309 7.71824V3.04667C30.0307 1.36673 28.664 0 26.984 0H8.7037C7.02376 0 5.65693 1.36673 5.65693 3.04667V7.71834C5.65693 9.04221 6.50609 10.1712 7.68808 10.5904V13.4734L2.60985 20.244C1.95518 21.1181 1.59463 22.1999 1.59463 23.2902V42.9588C1.59463 45.7588 3.87258 48.0366 6.67245 48.0366H22.9937C25.2709 51.8536 30.181 53.1311 34.0299 50.9087L46.343 43.7996C50.1978 41.5736 51.5728 36.6111 49.3165 32.7015ZM7.68808 3.04667C7.68808 2.48666 8.14369 2.03105 8.7036 2.03105H26.9839C27.5439 2.03105 27.9996 2.48666 27.9996 3.04667V7.71834C27.9996 8.27836 27.5439 8.73387 26.9839 8.73387H8.7037C8.14369 8.73387 7.68818 8.27826 7.68818 7.71834L7.68808 3.04667ZM4.23526 21.4621L9.5161 14.4212C9.64793 14.2455 9.71922 14.0316 9.71922 13.8118V10.7651H25.9684V12.7963H16.8283C16.2675 12.7963 15.8127 13.2511 15.8127 13.8119C15.8127 14.3727 16.2675 14.8275 16.8283 14.8275H26.4762L31.4521 21.4618C31.7773 21.896 31.9793 22.4155 32.0403 22.9521H3.64741C3.70835 22.4154 3.91036 21.8959 4.23526 21.4621ZM6.67255 46.0055C4.99261 46.0055 3.62588 44.6388 3.62588 42.9588V41.9331H22.0772C21.7552 43.2499 21.7573 44.6563 22.1261 46.0056H6.67255V46.0055ZM22.8738 39.912H3.62578V24.9831H32.0619V33.282L25.9052 36.8369C24.6216 37.5784 23.584 38.634 22.8738 39.912ZM33.0145 49.1496C30.1 50.8326 26.3757 49.8373 24.6916 46.9208C22.9994 43.9761 24.0249 40.2686 26.9211 38.5958L32.4336 35.413L38.527 45.9669L33.0145 49.1496ZM45.3273 42.0407L40.2861 44.9514L34.1925 34.3973L39.2339 31.4869C42.1504 29.8032 45.8733 30.8002 47.5575 33.7169C49.249 36.6482 48.2203 40.3701 45.3273 42.0407Z" fill="#003E83"/>
</g>
<defs>
<clipPath id="clip0_2036_1243">
<rect width="52" height="52" fill="white"/>
</clipPath>
</defs>
</svg>
