<svg width="24" height="24" viewBox="0 0 24 24" fill="none" xmlns="http://www.w3.org/2000/svg">
<mask id="mask0_2219_1648" style="mask-type:luminance" maskUnits="userSpaceOnUse" x="0" y="0" width="24" height="24">
<path d="M0 1.90735e-06H24V24H0V1.90735e-06Z" fill="white"/>
</mask>
<g mask="url(#mask0_2219_1648)">
<path d="M22.545 7.48283C20.9696 6.74821 19.1669 6.6695 17.5334 7.26402L4.51706 12.0016L2.43281 10.3116L0.703125 10.9412L1.80487 13.9682C2.41331 15.64 4.26183 16.5019 5.93362 15.8935L11.3979 13.9046L10.1609 18.7623L13.4041 17.5818L15.7026 12.3378L22.4401 9.8856C23.1156 9.63974 23.4639 8.89278 23.218 8.21732C23.1 7.89289 22.8579 7.62871 22.545 7.48283Z" stroke="#003E83" stroke-width="1.5" stroke-miterlimit="10" stroke-linecap="round" stroke-linejoin="round"/>
<path d="M9.64584 5.23773L6.40265 6.41819L10.9249 9.66934L15.3475 8.05965L9.64584 5.23773Z" stroke="#003E83" stroke-width="1.5" stroke-miterlimit="10" stroke-linecap="round" stroke-linejoin="round"/>
</g>
</svg>
