<svg width="52" height="52" viewBox="0 0 52 52" fill="none" xmlns="http://www.w3.org/2000/svg">
<path d="M5.92375 41.6874L5.89966 41.8583H6.07228H25.85V44.8083H2.85831V43.3333C2.85831 33.9641 11.4697 26.6917 21.6666 26.6917C23.2196 26.6917 24.7307 26.8582 26.1776 27.1732L25.5294 30.0511C24.2947 29.7839 23.0009 29.6417 21.6666 29.6417C13.3887 29.6417 6.86095 35.0365 5.92375 41.6874ZM21.6666 5.80833C17.6948 5.80833 14.475 9.02814 14.475 13C14.475 16.9719 17.6948 20.1917 21.6666 20.1917C25.6384 20.1917 28.8583 16.9719 28.8583 13C28.8583 9.02814 25.6384 5.80833 21.6666 5.80833ZM11.525 13C11.525 7.39891 16.0656 2.85833 21.6666 2.85833C27.2678 2.85833 31.8083 7.39891 31.8083 13C31.8083 18.6011 27.2678 23.1417 21.6666 23.1417C16.0656 23.1417 11.525 18.6011 11.525 13Z" fill="#003E83" stroke="white" stroke-width="0.3"/>
<path d="M32.0179 34.306L32.1212 34.2871C33.4599 34.0414 34.5642 33.4686 35.4832 32.9913L35.5769 32.9425L35.577 32.9425L35.646 33.0757C36.9336 32.4077 37.8542 31.9583 39 31.9583C40.1526 31.9583 41.0752 32.4086 42.3596 33.0755L32.0179 34.306ZM32.0179 34.306L32.0004 34.4097M32.0179 34.306L32.0004 34.4097M32.0004 34.4097C31.5109 37.313 31.9834 39.8683 33.1087 41.8454L33.239 41.7712L32.0004 34.4097ZM34.3071 30.278L34.3072 30.2779C35.5145 29.651 37.0445 28.8583 39 28.8583C40.9639 28.8583 42.4957 29.6523 43.7042 30.2805L43.7883 30.3243L43.7883 30.3243C45.073 30.9915 46.0179 31.4583 47.1978 31.4583H48.3524L48.6297 32.5793C49.6184 36.5785 49.1469 40.3327 47.455 43.3046L47.5854 43.3788L47.455 43.3046C45.7587 46.2848 42.888 48.3793 39.2946 49.112C39.2946 49.112 39.2946 49.112 39.2946 49.112L39 49.1719L38.7054 49.112C38.7054 49.112 38.7054 49.112 38.7053 49.112C35.1119 48.3793 32.2413 46.2848 30.5449 43.3046C28.8533 40.3327 28.3815 36.5785 29.3705 32.5793L29.3705 32.5793L29.6476 31.4583H30.8024C31.9845 31.4583 32.9333 30.9909 34.2183 30.3241L34.2187 30.3239L34.3071 30.278Z" fill="#003E83" stroke="white" stroke-width="0.3"/>
</svg>
