<svg width="52" height="52" viewBox="0 0 52 52" fill="none" xmlns="http://www.w3.org/2000/svg">
<mask id="mask0_2036_1404" style="mask-type:luminance" maskUnits="userSpaceOnUse" x="0" y="0" width="52" height="52">
<path d="M0 3.8147e-06H52V52H0V3.8147e-06Z" fill="white"/>
</mask>
<g mask="url(#mask0_2036_1404)">
<path d="M24.3682 9.68229C26.1697 9.68229 27.6318 11.1444 27.6318 12.9458C27.6318 14.7473 26.1697 16.2094 24.3682 16.2094C22.5668 16.2094 21.1047 14.7473 21.1047 12.9458C21.1047 11.1444 22.5668 9.68229 24.3682 9.68229Z" stroke="#003E83" stroke-width="2" stroke-miterlimit="10" stroke-linecap="round" stroke-linejoin="round"/>
<path d="M24.3682 35.7906C26.1697 35.7906 27.6318 37.2527 27.6318 39.0541C27.6318 40.8557 26.1697 42.3177 24.3682 42.3177C22.5668 42.3177 21.1047 40.8557 21.1047 39.0541C21.1047 37.2527 22.5668 35.7906 24.3682 35.7906Z" stroke="#003E83" stroke-width="2" stroke-miterlimit="10" stroke-linecap="round" stroke-linejoin="round"/>
<path d="M13.0633 16.2094C14.8639 16.2094 16.3268 17.6715 16.3268 19.4729C16.3268 21.2744 14.8639 22.7365 13.0633 22.7365C11.2618 22.7365 9.79968 21.2744 9.79968 19.4729C9.79968 17.6715 11.2618 16.2094 13.0633 16.2094Z" stroke="#003E83" stroke-width="2" stroke-miterlimit="10" stroke-linecap="round" stroke-linejoin="round"/>
<path d="M35.6731 29.2635C37.4746 29.2635 38.9366 30.7256 38.9366 32.527C38.9366 34.3286 37.4746 35.7906 35.6731 35.7906C33.8725 35.7906 32.4096 34.3286 32.4096 32.527C32.4096 30.7256 33.8725 29.2635 35.6731 29.2635Z" stroke="#003E83" stroke-width="2" stroke-miterlimit="10" stroke-linecap="round" stroke-linejoin="round"/>
<path d="M13.0633 29.2635C14.8639 29.2635 16.3268 30.7256 16.3268 32.527C16.3268 34.3286 14.8639 35.7906 13.0633 35.7906C11.2618 35.7906 9.79968 34.3286 9.79968 32.527C9.79968 30.7256 11.2618 29.2635 13.0633 29.2635Z" stroke="#003E83" stroke-width="2" stroke-miterlimit="10" stroke-linecap="round" stroke-linejoin="round"/>
<path d="M47.213 1.52341C47.213 1.52341 43.9495 7.32761 43.9495 12.9458C43.9495 14.7473 45.4115 16.2094 47.213 16.2094C49.0145 16.2094 50.4765 14.7473 50.4765 12.9458C50.4765 7.32761 47.213 1.52341 47.213 1.52341Z" stroke="#003E83" stroke-width="2" stroke-miterlimit="10" stroke-linecap="round" stroke-linejoin="round"/>
<path d="M47.213 16.2094C47.213 16.2094 43.9495 31.9642 43.9495 47.2131C43.9495 49.0145 45.4115 50.4766 47.213 50.4766C49.0145 50.4766 50.4765 49.0145 50.4765 47.2131C50.4765 31.9642 47.213 16.2094 47.213 16.2094Z" stroke="#003E83" stroke-width="2" stroke-miterlimit="10" stroke-linecap="round" stroke-linejoin="round"/>
<path d="M44.3696 37.0463C40.4754 44.0816 32.9782 48.8448 24.3682 48.8448C11.7513 48.8448 1.52338 38.6168 1.52338 26C1.52338 13.3831 11.7513 3.15527 24.3682 3.15527C26.9652 3.15527 29.4552 4.18654 31.291 6.02309C33.1276 7.85883 34.1589 10.3488 34.1589 12.9459C34.1589 15.5429 35.1901 18.0329 37.0267 19.8686C38.8624 21.7052 41.3524 22.7365 43.9495 22.7365H46.0634C45.4752 26.4912 44.7955 31.5472 44.3696 37.0463Z" stroke="#003E83" stroke-width="2" stroke-miterlimit="10" stroke-linecap="round" stroke-linejoin="round"/>
</g>
</svg>
