<svg width="52" height="52" viewBox="0 0 52 52" fill="none" xmlns="http://www.w3.org/2000/svg">
<path d="M26 4.725C14.2501 4.725 4.725 14.2501 4.725 26C4.725 37.7499 14.2501 47.275 26 47.275C37.7499 47.275 47.275 37.7499 47.275 26C47.275 25.1854 47.9354 24.525 48.75 24.525C49.5646 24.525 50.225 25.1854 50.225 26C50.225 39.3791 39.3791 50.225 26 50.225C12.6209 50.225 1.775 39.3791 1.775 26C1.775 12.6209 12.6209 1.775 26 1.775C26.8146 1.775 27.475 2.43538 27.475 3.25C27.475 4.06462 26.8146 4.725 26 4.725Z" fill="#003E83" stroke="white" stroke-width="0.3"/>
<path d="M26 16.1C20.5324 16.1 16.1 20.5324 16.1 26C16.1 31.4676 20.5324 35.9 26 35.9C31.4676 35.9 35.9 31.4676 35.9 26C35.9 25.1854 36.5604 24.525 37.375 24.525C38.1896 24.525 38.85 25.1854 38.85 26C38.85 33.0969 33.0969 38.85 26 38.85C18.9031 38.85 13.15 33.0969 13.15 26C13.15 18.9031 18.9031 13.15 26 13.15C26.8146 13.15 27.475 13.8104 27.475 14.625C27.475 15.4396 26.8146 16.1 26 16.1Z" fill="#003E83" stroke="white" stroke-width="0.3"/>
<path d="M34.3017 9.34676L34.3017 9.34677L34.5579 15.2397L34.5608 15.3056L34.5141 15.3523L25.7695 24.0969L25.6635 23.9909L25.7695 24.097C25.1935 24.6729 25.1934 25.6068 25.7695 26.1829C26.3455 26.7589 27.2794 26.7589 27.8555 26.1829L36.6001 17.4382L36.6467 17.3915L36.7127 17.3944L42.6056 17.6507C43.0186 17.6686 43.4203 17.5124 43.7126 17.22L49.7451 11.1875C50.1587 10.7739 50.2889 10.155 50.0768 9.60982L50.0768 9.60981C49.8647 9.06466 49.3505 8.69634 48.7662 8.6709L43.6473 8.44836L43.5099 8.44238L43.504 8.30501L43.2814 3.18615C43.2561 2.60178 42.8877 2.08762 42.3426 1.87557M34.3017 9.34676L42.3426 1.87557M34.3017 9.34676C34.2837 8.93379 34.44 8.53214 34.7324 8.23979L40.7649 2.20724L40.6592 2.10156L40.7649 2.20724C41.1784 1.79364 41.7974 1.66351 42.3426 1.87557M34.3017 9.34676L42.397 1.73577L42.3426 1.87557M37.4715 14.3375L37.4775 14.4749L37.6148 14.4808L42.0195 14.6723L42.0855 14.6752L42.1321 14.6286L45.0471 11.7136L45.2882 11.4725L44.9475 11.4577L42.031 11.3309C41.2668 11.2976 40.6547 10.6856 40.6214 9.92129L40.4947 7.00482L40.4799 6.66415L40.2388 6.90527L37.3238 9.82028L37.2771 9.86693L37.28 9.93286L37.4715 14.3375Z" fill="#003E83" stroke="white" stroke-width="0.3"/>
</svg>
