<svg width="24" height="24" viewBox="0 0 24 24" fill="none" xmlns="http://www.w3.org/2000/svg">
<path fill-rule="evenodd" clip-rule="evenodd" d="M3.282 4.473L3.288 4.474C6.138 4.927 8.987 4.855 11.831 4.269C15.02 3.5 18.208 3.343 21.398 4.07C21.4 4.071 21.402 4.071 21.404 4.072C22.194 4.259 22.751 4.965 22.75 5.775C22.75 8.097 22.75 15.004 22.748 17.802C22.748 18.316 22.521 18.804 22.129 19.136C21.737 19.468 21.219 19.611 20.718 19.527C17.866 19.073 15.015 19.144 12.169 19.731C8.98 20.5 5.792 20.657 2.602 19.93C2.6 19.929 2.598 19.929 2.596 19.928C1.806 19.741 1.249 19.035 1.25 18.225C1.25 15.903 1.25 8.996 1.252 6.198C1.252 5.684 1.479 5.196 1.871 4.864C2.261 4.533 2.777 4.39 3.282 4.473ZM3.041 5.954C2.969 5.942 2.896 5.962 2.84 6.009C2.785 6.056 2.752 6.125 2.752 6.198C2.75 8.996 2.75 15.904 2.75 18.225C2.75 18.34 2.829 18.441 2.941 18.468C5.903 19.143 8.863 18.986 11.824 18.271C11.832 18.269 11.84 18.267 11.848 18.266C14.883 17.639 17.919 17.562 20.954 18.046H20.959C21.031 18.058 21.104 18.038 21.16 17.991C21.215 17.944 21.248 17.875 21.248 17.802C21.25 15.004 21.25 8.096 21.25 5.775C21.25 5.66 21.171 5.559 21.059 5.532C18.097 4.857 15.137 5.014 12.176 5.729C12.168 5.731 12.16 5.733 12.152 5.734C9.117 6.361 6.081 6.438 3.046 5.954H3.041Z" fill="#003E83"/>
<path fill-rule="evenodd" clip-rule="evenodd" d="M12 7.25C14.622 7.25 16.75 9.378 16.75 12C16.75 14.622 14.622 16.75 12 16.75C9.378 16.75 7.25 14.622 7.25 12C7.25 9.378 9.378 7.25 12 7.25ZM12 8.75C10.206 8.75 8.75 10.206 8.75 12C8.75 13.794 10.206 15.25 12 15.25C13.794 15.25 15.25 13.794 15.25 12C15.25 10.206 13.794 8.75 12 8.75Z" fill="#003E83"/>
</svg>
