<svg width="24" height="24" viewBox="0 0 24 24" fill="none" xmlns="http://www.w3.org/2000/svg">
<g clip-path="url(#clip0_2219_1683)">
<mask id="mask0_2219_1683" style="mask-type:luminance" maskUnits="userSpaceOnUse" x="0" y="0" width="24" height="24">
<path d="M0 1.90735e-06H24V24H0V1.90735e-06Z" fill="white"/>
</mask>
<g mask="url(#mask0_2219_1683)">
<path d="M11.2469 4.46875C12.0783 4.46875 12.7531 5.14356 12.7531 5.97498C12.7531 6.80645 12.0783 7.48126 11.2469 7.48126C10.4154 7.48126 9.74063 6.80645 9.74063 5.97498C9.74063 5.14356 10.4154 4.46875 11.2469 4.46875Z" stroke="#003E83" stroke-width="1.5" stroke-miterlimit="10" stroke-linecap="round" stroke-linejoin="round"/>
<path d="M11.2469 16.5187C12.0783 16.5187 12.7531 17.1935 12.7531 18.025C12.7531 18.8564 12.0783 19.5312 11.2469 19.5312C10.4154 19.5312 9.74063 18.8564 9.74063 18.025C9.74063 17.1935 10.4154 16.5187 11.2469 16.5187Z" stroke="#003E83" stroke-width="1.5" stroke-miterlimit="10" stroke-linecap="round" stroke-linejoin="round"/>
<path d="M6.02923 7.48126C6.86027 7.48126 7.53546 8.15607 7.53546 8.98749C7.53546 9.81896 6.86027 10.4938 6.02923 10.4938C5.19776 10.4938 4.52295 9.81896 4.52295 8.98749C4.52295 8.15607 5.19776 7.48126 6.02923 7.48126Z" stroke="#003E83" stroke-width="1.5" stroke-miterlimit="10" stroke-linecap="round" stroke-linejoin="round"/>
<path d="M16.4645 13.5062C17.296 13.5062 17.9708 14.181 17.9708 15.0125C17.9708 15.8439 17.296 16.5187 16.4645 16.5187C15.6335 16.5187 14.9583 15.8439 14.9583 15.0125C14.9583 14.181 15.6335 13.5062 16.4645 13.5062Z" stroke="#003E83" stroke-width="1.5" stroke-miterlimit="10" stroke-linecap="round" stroke-linejoin="round"/>
<path d="M6.02923 13.5062C6.86027 13.5062 7.53546 14.181 7.53546 15.0125C7.53546 15.8439 6.86027 16.5187 6.02923 16.5187C5.19776 16.5187 4.52295 15.8439 4.52295 15.0125C4.52295 14.181 5.19776 13.5062 6.02923 13.5062Z" stroke="#003E83" stroke-width="1.5" stroke-miterlimit="10" stroke-linecap="round" stroke-linejoin="round"/>
<path d="M21.7906 0.703137C21.7906 0.703137 20.2844 3.382 20.2844 5.97503C20.2844 6.80645 20.9592 7.48126 21.7906 7.48126C22.6221 7.48126 23.2969 6.80645 23.2969 5.97503C23.2969 3.382 21.7906 0.703137 21.7906 0.703137Z" stroke="#003E83" stroke-width="1.5" stroke-miterlimit="10" stroke-linecap="round" stroke-linejoin="round"/>
<path d="M21.7906 7.48125C21.7906 7.48125 20.2844 14.7527 20.2844 21.7906C20.2844 22.6221 20.9592 23.2969 21.7906 23.2969C22.6221 23.2969 23.2969 22.6221 23.2969 21.7906C23.2969 14.7527 21.7906 7.48125 21.7906 7.48125Z" stroke="#003E83" stroke-width="1.5" stroke-miterlimit="10" stroke-linecap="round" stroke-linejoin="round"/>
<path d="M20.4783 17.0983C18.681 20.3454 15.2207 22.5438 11.2469 22.5438C5.4237 22.5438 0.703106 17.8232 0.703106 12C0.703106 6.17684 5.4237 1.45629 11.2469 1.45629C12.4455 1.45629 13.5947 1.93226 14.442 2.7799C15.2897 3.62717 15.7656 4.7764 15.7656 5.97504C15.7656 7.17364 16.2416 8.32287 17.0892 9.17014C17.9365 10.0178 19.0857 10.4938 20.2844 10.4938H21.26C20.9885 12.2267 20.6749 14.5602 20.4783 17.0983Z" stroke="#003E83" stroke-width="1.5" stroke-miterlimit="10" stroke-linecap="round" stroke-linejoin="round"/>
</g>
</g>
<defs>
<clipPath id="clip0_2219_1683">
<rect width="24" height="24" fill="white"/>
</clipPath>
</defs>
</svg>
