<svg width="52" height="53" viewBox="0 0 52 53" fill="none" xmlns="http://www.w3.org/2000/svg">
<path d="M29.8636 15.3408V7.87359C29.881 7.64346 29.9846 7.42838 30.1539 7.27145C30.3231 7.11453 30.5454 7.02733 30.7762 7.02733C31.007 7.02733 31.2292 7.11453 31.3985 7.27145C31.5677 7.42838 31.6714 7.64346 31.6888 7.87359V9.64159C31.6875 9.71552 31.704 9.78868 31.7368 9.85494C31.7696 9.92119 31.8178 9.97862 31.8774 10.0224C31.937 10.0662 32.0062 10.0951 32.0792 10.1066C32.1523 10.1182 32.227 10.1121 32.2972 10.0888L36.4572 8.26359C36.5429 8.23283 36.6169 8.17636 36.6693 8.1019C36.7217 8.02744 36.7498 7.93863 36.7498 7.84759C36.7498 7.75656 36.7217 7.66774 36.6693 7.59328C36.6169 7.51882 36.5429 7.46235 36.4572 7.43159L30.4356 4.83159C29.3332 4.38959 30.0508 2.75159 31.1532 3.17279L39.9932 7.04679C40.1585 7.11352 40.3001 7.22813 40.3998 7.37591C40.4996 7.52369 40.5528 7.69791 40.5528 7.87619C40.5528 8.05448 40.4996 8.22869 40.3998 8.37647C40.3001 8.52426 40.1585 8.63887 39.9932 8.70559L31.928 12.1896C31.8544 12.2208 31.7931 12.2754 31.7536 12.345C31.7141 12.4146 31.6986 12.4952 31.7096 12.5744V15.5072C31.7022 15.5665 31.7081 15.6267 31.727 15.6834C31.7459 15.7401 31.7773 15.7918 31.8188 15.8348L37.232 21.8668C37.2892 21.976 37.3412 22.028 37.3984 22.1424L49.3584 48.574C49.4348 48.7178 49.4711 48.8797 49.4632 49.0424C49.4553 49.2052 49.4037 49.3628 49.3137 49.4986C49.2236 49.6344 49.0986 49.7434 48.9518 49.814C48.805 49.8847 48.6419 49.9144 48.4796 49.9H3.50998C3.27552 49.9 3.05068 49.8069 2.88489 49.6411C2.71911 49.4753 2.62598 49.2504 2.62598 49.016C2.62598 48.7815 2.71911 48.5567 2.88489 48.3909C3.05068 48.2251 3.27552 48.132 3.50998 48.132H5.22598C5.34451 48.1294 5.45919 48.0893 5.55358 48.0176L13.182 40.8312C13.249 40.7546 13.2876 40.6573 13.2912 40.5556L14.8512 31.4868C14.8567 31.3809 14.884 31.2773 14.9314 31.1824C14.9788 31.0875 15.0453 31.0035 15.1268 30.9356L19.9888 26.6768C20.0864 26.5764 20.2058 26.4997 20.3378 26.4527C20.4698 26.4057 20.6108 26.3896 20.7499 26.4057C20.8891 26.4218 21.0227 26.4696 21.1404 26.5454C21.2582 26.6213 21.357 26.7231 21.4292 26.8432L28.08 38.46C28.1444 38.56 28.1871 38.6725 28.2052 38.7901C28.2233 38.9077 28.2164 39.0278 28.185 39.1426C28.1536 39.2574 28.0984 39.3643 28.023 39.4563C27.9475 39.5484 27.8536 39.6235 27.7472 39.6768C27.6467 39.738 27.5347 39.778 27.4182 39.7944C27.3017 39.8107 27.183 39.8031 27.0695 39.7719C26.9561 39.7408 26.8502 39.6867 26.7583 39.6131C26.6665 39.5395 26.5907 39.448 26.5356 39.344L20.6388 29.1624C20.6046 29.1087 20.5594 29.0628 20.5063 29.0277C20.4532 28.9927 20.3932 28.9692 20.3304 28.9589C20.2676 28.9486 20.2033 28.9517 20.1417 28.9679C20.0802 28.9842 20.0227 29.0132 19.9732 29.0532L16.64 31.986C16.5705 32.0687 16.5144 32.1616 16.4736 32.2616L15.002 41.3304C14.9743 41.5308 14.8767 41.715 14.7264 41.8504C12.8492 43.7328 10.8056 45.558 8.87118 47.3832C8.80616 47.4471 8.76197 47.5291 8.74437 47.6186C8.72678 47.708 8.73662 47.8007 8.77259 47.8844C8.80857 47.9682 8.869 48.0391 8.94598 48.0879C9.02295 48.1367 9.11288 48.1612 9.20398 48.158H30.3056C30.3868 48.1598 30.467 48.1391 30.5373 48.0983C30.6076 48.0574 30.6653 47.998 30.704 47.9265C30.7427 47.855 30.7609 47.7743 30.7567 47.6931C30.7524 47.6119 30.7259 47.5335 30.68 47.4664L28.704 43.2648C28.6212 43.0954 28.5928 42.9046 28.6226 42.7185C28.6524 42.5323 28.7389 42.3599 28.8704 42.2248L35.0584 35.86C35.1127 35.8139 35.1521 35.7527 35.1716 35.6842C35.191 35.6157 35.1896 35.5429 35.1676 35.4752L30.5292 19.376C30.5045 19.2904 30.4554 19.2138 30.3879 19.1556C30.3204 19.0975 30.2373 19.0604 30.149 19.0488C30.0606 19.0372 29.9708 19.0516 29.8905 19.0904C29.8103 19.1291 29.7431 19.1904 29.6972 19.2668L24.7832 27.7792C24.7217 27.8816 24.6407 27.9709 24.5447 28.0421C24.4487 28.1132 24.3397 28.1647 24.2238 28.1937C24.1079 28.2226 23.9874 28.2285 23.8693 28.2109C23.7511 28.1933 23.6376 28.1527 23.5352 28.0912C23.4327 28.0297 23.3434 27.9487 23.2723 27.8527C23.2012 27.7567 23.1497 27.6477 23.1207 27.5318C23.0917 27.4159 23.0859 27.2955 23.1035 27.1773C23.121 27.0592 23.1617 26.9456 23.2232 26.8432L29.8064 15.58C29.8636 15.528 29.8636 15.4708 29.8636 15.3616V15.3408ZM33.28 48.132H46.384C46.4622 48.1298 46.5389 48.1088 46.6074 48.0709C46.6758 48.0329 46.7342 47.979 46.7775 47.9138C46.8209 47.8485 46.8479 47.7739 46.8563 47.696C46.8647 47.6181 46.8543 47.5394 46.826 47.4664L35.828 23.0264L35.7188 22.9172L33.6752 20.5928C33.6034 20.5215 33.5102 20.4756 33.4098 20.4623C33.3095 20.449 33.2076 20.469 33.1197 20.5191C33.0318 20.5693 32.9627 20.6469 32.9231 20.74C32.8835 20.8331 32.8755 20.9367 32.9004 21.0348L37.102 35.6884C37.1516 35.8419 37.1569 36.0062 37.1173 36.1626C37.0778 36.3189 36.995 36.461 36.8784 36.5724L30.8048 42.8124C30.7303 42.8738 30.6786 42.9584 30.6578 43.0526C30.6371 43.1469 30.6486 43.2454 30.6904 43.3324L32.8484 47.8668C32.895 47.9444 32.9593 48.0099 33.0362 48.0578C33.113 48.1057 33.2001 48.1347 33.2904 48.1424L33.28 48.132Z" fill="#003E83" stroke="#003E83"/>
</svg>
