<svg width="52" height="52" viewBox="0 0 52 52" fill="none" xmlns="http://www.w3.org/2000/svg">
<g clip-path="url(#clip0_2197_491)">
<path d="M43.9224 14.9541L47.2005 9.81747L49.7692 11.4568L46.491 16.5934L43.9224 14.9541Z" fill="#003E83"/>
<path d="M34.6018 10.8246L36.5558 5.06011L39.4413 6.03822L37.4874 11.8027L34.6018 10.8246Z" fill="#003E83"/>
<path d="M24.4746 3.48511H27.5217V9.5792H24.4746V3.48511Z" fill="#003E83"/>
<path d="M12.5647 6.02234L15.4503 5.04424L17.4042 10.8087L14.5187 11.7868L12.5647 6.02234Z" fill="#003E83"/>
<path d="M2.22583 11.4626L4.79449 9.82327L8.07268 14.9599L5.50402 16.5992L2.22583 11.4626Z" fill="#003E83"/>
<path d="M51.1988 28.8191L52 27.8278L51.1657 26.8642C51.0531 26.7341 48.3548 23.6406 43.9325 20.5223C38.0205 16.3533 31.8188 14.1498 25.9981 14.1498C20.1769 14.1498 13.9803 16.3536 8.07782 20.5231C3.66286 23.6417 0.971907 26.7357 0.859471 26.8658L0 27.8615L0.859471 28.8571C0.971907 28.9872 3.66286 32.0811 8.07782 35.1999C13.9802 39.3694 20.1769 41.5732 25.9981 41.5732C28.9073 41.5732 31.9076 41.0341 34.9372 39.9722C35.1377 40.3311 35.3891 40.6691 35.6938 40.9739L43.2349 48.5149L49.6986 42.0511L43.355 35.7075C48.2552 32.4258 51.0694 28.9792 51.1988 28.8191ZM31.3846 30.2009C28.4145 33.1711 23.5817 33.1711 20.6117 30.2009C19.1728 28.7621 18.3805 26.8492 18.3805 24.8144C18.3805 22.7797 19.1728 20.8668 20.6117 19.428C22.0967 17.9429 24.0474 17.2004 25.9981 17.2004C27.9488 17.2004 29.8996 17.9429 31.3846 19.428C32.8234 20.8668 33.6157 22.7797 33.6157 24.8144C33.6157 26.8492 32.8234 28.7621 31.3846 30.2009ZM9.89904 32.7557C7.22861 30.8768 5.207 28.9772 4.10478 27.8615C5.2072 26.7455 7.22892 24.8459 9.89904 22.9672C11.7967 21.6319 14.2327 20.1672 17.0238 19.0473C15.9237 20.7517 15.3335 22.7376 15.3335 24.8143C15.3335 27.663 16.4428 30.3411 18.4571 32.3554C20.5362 34.4344 23.2671 35.4739 25.9981 35.4739C28.2488 35.4739 30.4989 34.7672 32.3846 33.3553L34.8019 35.7725C34.6276 36.1384 34.5046 36.5226 34.433 36.9147C31.5551 37.9831 28.7218 38.5261 25.9981 38.5261C19.4703 38.5262 13.6403 35.3881 9.89904 32.7557ZM43.2349 44.2057L37.8484 38.8192C37.2543 38.2252 37.2543 37.2586 37.8484 36.6645C38.4438 36.0692 39.4075 36.0691 40.003 36.6645L45.3894 42.051L43.2349 44.2057ZM40.9462 33.641C39.6689 33.0102 38.1847 33.0273 36.9544 33.6161L34.5401 31.202C35.9174 29.3682 36.6627 27.1487 36.6627 24.8144C36.6627 22.7366 36.0719 20.7498 34.9707 19.0448C37.768 20.1653 40.2105 21.6315 42.1134 22.9681C44.8088 24.8613 46.8457 26.7754 47.9452 27.8878C46.73 29.1699 44.3064 31.4993 40.9462 33.641Z" fill="#003E83"/>
<path d="M25.9981 20.2439C23.4778 20.2439 21.4275 22.2943 21.4275 24.8145C21.4275 27.3347 23.4778 29.385 25.9981 29.385C28.5183 29.385 30.5686 27.3347 30.5686 24.8145C30.5686 22.2943 28.5183 20.2439 25.9981 20.2439ZM25.9981 26.338C25.158 26.338 24.4745 25.6545 24.4745 24.8145C24.4745 23.9744 25.158 23.2909 25.9981 23.2909C26.8381 23.2909 27.5216 23.9744 27.5216 24.8145C27.5216 25.6545 26.8381 26.338 25.9981 26.338Z" fill="#003E83"/>
</g>
<defs>
<clipPath id="clip0_2197_491">
<rect width="52" height="52" fill="white"/>
</clipPath>
</defs>
</svg>
