<svg width="24" height="25" viewBox="0 0 24 25" fill="none" xmlns="http://www.w3.org/2000/svg">
<path d="M24 4.5H0V20.5002H24V4.5Z" fill="#F0F0F0"/>
<path d="M13.5 4.49988H10.5V10.9998H0V13.9998H10.5V20.4998H13.5V13.9998H24V10.9998H13.5V4.49988Z" fill="#D80027"/>
<path d="M18.4587 15.2823L24 18.3609V15.2823H18.4587Z" fill="#0052B4"/>
<path d="M14.6087 15.2823L24 20.4997V19.0244L17.2644 15.2823H14.6087Z" fill="#0052B4"/>
<path d="M21.4985 20.4998L14.6087 16.6718V20.4998H21.4985Z" fill="#0052B4"/>
<path d="M14.6087 15.2823L24 20.4997V19.0244L17.2644 15.2823H14.6087Z" fill="#F0F0F0"/>
<path d="M14.6087 15.2823L24 20.4997V19.0244L17.2644 15.2823H14.6087Z" fill="#D80027"/>
<path d="M4.23473 15.2823L0 17.635V15.2823H4.23473Z" fill="#0052B4"/>
<path d="M9.39131 15.9458V20.4998H1.19489L9.39131 15.9458Z" fill="#0052B4"/>
<path d="M6.73561 15.2823L0 19.0244V20.4997L9.39131 15.2823H6.73561Z" fill="#D80027"/>
<path d="M5.54133 9.71723L0 6.63867V9.71723H5.54133Z" fill="#0052B4"/>
<path d="M9.39131 9.71725L0 4.49988V5.97522L6.73561 9.71725H9.39131Z" fill="#0052B4"/>
<path d="M2.50153 4.49988L9.39131 8.32788V4.49988H2.50153Z" fill="#0052B4"/>
<path d="M9.39131 9.71725L0 4.49988V5.97522L6.73561 9.71725H9.39131Z" fill="#F0F0F0"/>
<path d="M9.39131 9.71725L0 4.49988V5.97522L6.73561 9.71725H9.39131Z" fill="#D80027"/>
<path d="M19.7653 9.71728L24 7.36462V9.71728H19.7653Z" fill="#0052B4"/>
<path d="M14.6087 9.05383V4.49988H22.8051L14.6087 9.05383Z" fill="#0052B4"/>
<path d="M17.2644 9.71725L24 5.97522V4.49988L14.6087 9.71725H17.2644Z" fill="#D80027"/>
</svg>
