<svg width="20" height="21" viewBox="0 0 20 21" fill="none" xmlns="http://www.w3.org/2000/svg">
<path d="M19.7556 19.0774L14.0682 13.39C15.1699 12.0292 15.8332 10.3 15.8332 8.41672C15.8332 4.05177 12.2815 0.500122 7.91656 0.500122C3.55161 0.500122 0 4.05173 0 8.41669C0 12.7816 3.55165 16.3333 7.9166 16.3333C9.7999 16.3333 11.5291 15.67 12.8899 14.5683L18.5773 20.2558C18.7398 20.4182 18.9531 20.4999 19.1665 20.4999C19.3798 20.4999 19.5932 20.4182 19.7557 20.2558C20.0815 19.9299 20.0815 19.4033 19.7556 19.0774ZM7.9166 14.6666C4.46996 14.6666 1.66666 11.8633 1.66666 8.41669C1.66666 4.97004 4.46996 2.16675 7.9166 2.16675C11.3632 2.16675 14.1665 4.97004 14.1665 8.41669C14.1665 11.8633 11.3632 14.6666 7.9166 14.6666Z" fill="#003E83"/>
</svg>
