<svg width="36" height="36" viewBox="0 0 36 36" fill="none" xmlns="http://www.w3.org/2000/svg">
<g clip-path="url(#clip0_2213_716)">
<path d="M27.3702 23.8147C26.194 22.6536 24.7257 22.6536 23.5571 23.8147C22.6657 24.6987 21.7742 25.5827 20.8977 26.4816C20.658 26.7288 20.4557 26.7813 20.1636 26.6165C19.5867 26.3018 18.9725 26.0471 18.4181 25.7025C15.8336 24.0769 13.6687 21.9869 11.7509 19.6346C10.7995 18.466 9.95299 17.2149 9.36118 15.8066C9.24132 15.5219 9.26379 15.3346 9.49602 15.1024C10.3875 14.2409 11.2565 13.3569 12.1329 12.473C13.354 11.2444 13.354 9.80608 12.1255 8.57002C11.4288 7.86584 10.7321 7.17665 10.0354 6.47247C9.31623 5.75331 8.60456 5.02666 7.87791 4.31499C6.70178 3.16882 5.23349 3.16882 4.06486 4.32248C3.1659 5.20645 2.30441 6.11289 1.39048 6.98188C0.543963 7.78344 0.116961 8.7648 0.0270658 9.91096C-0.115268 11.7763 0.341699 13.5367 0.985947 15.2522C2.30441 18.8031 4.31207 21.9569 6.74673 24.8485C10.0354 28.759 13.9608 31.8529 18.553 34.0853C20.6205 35.0891 22.763 35.8607 25.0928 35.988C26.696 36.0779 28.0893 35.6734 29.2055 34.4224C29.9696 33.5684 30.8311 32.7893 31.6402 31.9727C32.8388 30.7591 32.8463 29.2908 31.6552 28.0922C30.2318 26.6614 28.801 25.2381 27.3702 23.8147Z" fill="#003E83"/>
<path d="M25.9389 17.8442L28.7032 17.3723C28.2687 14.8327 27.0701 12.5329 25.2497 10.7051C23.3244 8.7798 20.8898 7.56621 18.2079 7.19165L17.8184 9.97091C19.8934 10.2631 21.7812 11.1995 23.272 12.6902C24.6804 14.0986 25.6018 15.8815 25.9389 17.8442Z" fill="#003E83"/>
<path d="M30.2615 5.8282C27.0702 2.63692 23.0324 0.621775 18.5751 0L18.1855 2.77926C22.0361 3.31863 25.527 5.06409 28.2838 7.81339C30.8982 10.4278 32.6137 13.7315 33.2355 17.3647L35.9998 16.8928C35.2731 12.6827 33.2879 8.86216 30.2615 5.8282Z" fill="#003E83"/>
</g>
<defs>
<clipPath id="clip0_2213_716">
<rect width="36" height="36" fill="white"/>
</clipPath>
</defs>
</svg>
