<svg width="36" height="36" viewBox="0 0 36 36" fill="none" xmlns="http://www.w3.org/2000/svg">
<path d="M28.125 4.5C28.1232 3.90381 27.8856 3.33255 27.464 2.91098C27.0425 2.48941 26.4712 2.25178 25.875 2.25H10.125C9.52881 2.25178 8.95755 2.48941 8.53598 2.91098C8.11441 3.33255 7.87678 3.90381 7.875 4.5V9H28.125V4.5Z" fill="#003E83"/>
<path d="M31.5 11.25H4.5C3.90381 11.2518 3.33255 11.4894 2.91098 11.911C2.48941 12.3325 2.25178 12.9038 2.25 13.5V25.875C2.25178 26.4712 2.48941 27.0425 2.91098 27.464C3.33255 27.8856 3.90381 28.1232 4.5 28.125H6.75V23.625C6.45163 23.625 6.16548 23.5065 5.9545 23.2955C5.74353 23.0845 5.625 22.7984 5.625 22.5C5.625 22.2016 5.74353 21.9155 5.9545 21.7045C6.16548 21.4935 6.45163 21.375 6.75 21.375H29.25C29.5484 21.375 29.8345 21.4935 30.0455 21.7045C30.2565 21.9155 30.375 22.2016 30.375 22.5C30.375 22.7984 30.2565 23.0845 30.0455 23.2955C29.8345 23.5065 29.5484 23.625 29.25 23.625V28.125H31.5C32.0962 28.1232 32.6675 27.8856 33.089 27.464C33.5106 27.0425 33.7482 26.4712 33.75 25.875V13.5C33.7482 12.9038 33.5106 12.3325 33.089 11.911C32.6675 11.4894 32.0962 11.2518 31.5 11.25ZM12.375 16.875H9C8.70163 16.875 8.41548 16.7565 8.2045 16.5455C7.99353 16.3345 7.875 16.0484 7.875 15.75C7.875 15.4516 7.99353 15.1655 8.2045 14.9545C8.41548 14.7435 8.70163 14.625 9 14.625H12.375C12.6734 14.625 12.9595 14.7435 13.1705 14.9545C13.3815 15.1655 13.5 15.4516 13.5 15.75C13.5 16.0484 13.3815 16.3345 13.1705 16.5455C12.9595 16.7565 12.6734 16.875 12.375 16.875ZM23.625 16.875C23.4025 16.875 23.185 16.809 23 16.6854C22.815 16.5618 22.6708 16.3861 22.5856 16.1805C22.5005 15.975 22.4782 15.7488 22.5216 15.5305C22.565 15.3123 22.6722 15.1118 22.8295 14.9545C22.9868 14.7972 23.1873 14.69 23.4055 14.6466C23.6238 14.6032 23.85 14.6255 24.0555 14.7106C24.2611 14.7958 24.4368 14.94 24.5604 15.125C24.684 15.31 24.75 15.5275 24.75 15.75C24.75 16.0484 24.6315 16.3345 24.4205 16.5455C24.2095 16.7565 23.9234 16.875 23.625 16.875ZM27 16.875C26.7775 16.875 26.56 16.809 26.375 16.6854C26.19 16.5618 26.0458 16.3861 25.9606 16.1805C25.8755 15.975 25.8532 15.7488 25.8966 15.5305C25.94 15.3123 26.0472 15.1118 26.2045 14.9545C26.3618 14.7972 26.5623 14.69 26.7805 14.6466C26.9988 14.6032 27.225 14.6255 27.4305 14.7106C27.6361 14.7958 27.8118 14.94 27.9354 15.125C28.059 15.31 28.125 15.5275 28.125 15.75C28.125 16.0484 28.0065 16.3345 27.7955 16.5455C27.5845 16.7565 27.2984 16.875 27 16.875Z" fill="#003E83"/>
<path d="M9 31.5C9 32.0967 9.23705 32.669 9.65901 33.091C10.081 33.5129 10.6533 33.75 11.25 33.75H24.75C25.3467 33.75 25.919 33.5129 26.341 33.091C26.7629 32.669 27 32.0967 27 31.5V23.625H9V31.5Z" fill="#003E83"/>
</svg>
