<svg width="36" height="36" viewBox="0 0 36 36" fill="none" xmlns="http://www.w3.org/2000/svg">
<path d="M14.5436 19.872C14.4356 19.872 12.0596 19.872 10.9796 19.872C10.4036 19.872 10.2236 19.656 10.2236 19.116C10.2236 17.676 10.2236 16.2 10.2236 14.76C10.2236 14.184 10.4396 14.004 10.9796 14.004H14.5436C14.5436 13.896 14.5436 11.808 14.5436 10.836C14.5436 9.39599 14.7956 8.02799 15.5156 6.76799C16.2716 5.47199 17.3516 4.60799 18.7196 4.10399C19.6196 3.77999 20.5196 3.63599 21.4916 3.63599H25.0196C25.5236 3.63599 25.7396 3.85199 25.7396 4.35599V8.45999C25.7396 8.96399 25.5236 9.17999 25.0196 9.17999C24.0476 9.17999 23.0756 9.17999 22.1036 9.21599C21.1316 9.21599 20.6276 9.68399 20.6276 10.692C20.5916 11.772 20.6276 12.816 20.6276 13.932H24.8036C25.3796 13.932 25.5956 14.148 25.5956 14.724V19.08C25.5956 19.656 25.4156 19.836 24.8036 19.836C23.5076 19.836 20.7356 19.836 20.6276 19.836V31.572C20.6276 32.184 20.4476 32.4 19.7996 32.4C18.2876 32.4 16.8116 32.4 15.2996 32.4C14.7596 32.4 14.5436 32.184 14.5436 31.644C14.5436 27.864 14.5436 19.98 14.5436 19.872Z" fill="#003E83"/>
</svg>
