<svg width="36" height="36" viewBox="0 0 36 36" fill="none" xmlns="http://www.w3.org/2000/svg">
<path fill-rule="evenodd" clip-rule="evenodd" d="M18 2.25C25.0373 2.25 30.75 7.96275 30.75 15C30.75 18.6645 28.9215 22.4363 26.6258 25.6035C23.4203 30.027 19.4115 33.252 19.4115 33.252V33.2528C18.5872 33.9158 17.4128 33.9158 16.5885 33.2528V33.252C16.5885 33.252 12.5797 30.027 9.37424 25.6035C7.07849 22.4363 5.25 18.6645 5.25 15C5.25 7.96275 10.9627 2.25 18 2.25ZM18 9.75C20.8973 9.75 23.25 12.1027 23.25 15C23.25 17.8973 20.8973 20.25 18 20.25C15.1027 20.25 12.75 17.8973 12.75 15C12.75 12.1027 15.1027 9.75 18 9.75Z" fill="#003E83"/>
</svg>
