<svg width="24" height="24" viewBox="0 0 24 24" fill="none" xmlns="http://www.w3.org/2000/svg">
<path d="M18.2466 15.8765C17.4625 15.1024 16.4837 15.1024 15.7046 15.8765C15.1103 16.4658 14.516 17.0551 13.9316 17.6544C13.7718 17.8192 13.637 17.8542 13.4422 17.7443C13.0577 17.5346 12.6481 17.3648 12.2786 17.135C10.5556 16.0513 9.11227 14.6579 7.83376 13.0897C7.1995 12.3107 6.63516 11.4766 6.24062 10.5377C6.16071 10.3479 6.1757 10.2231 6.33052 10.0683C6.92482 9.49394 7.50415 8.90463 8.08846 8.31531C8.90252 7.49627 8.90252 6.53739 8.08347 5.71335C7.61901 5.2439 7.15455 4.78443 6.6901 4.31498C6.21066 3.83554 5.73621 3.3511 5.25177 2.87666C4.46769 2.11255 3.48883 2.11255 2.70974 2.88165C2.11044 3.47096 1.53611 4.07526 0.926821 4.65458C0.362479 5.18896 0.0778112 5.8432 0.0178811 6.60731C-0.0770082 7.85086 0.227636 9.02449 0.657135 10.1682C1.53611 12.5354 2.87455 14.6379 4.49765 16.5657C6.6901 19.1726 9.30704 21.2352 12.3685 22.7235C13.7469 23.3927 15.1752 23.9071 16.7284 23.992C17.7971 24.052 18.7261 23.7823 19.4702 22.9482C19.9796 22.3789 20.5539 21.8595 21.0933 21.3151C21.8924 20.5061 21.8974 19.5272 21.1033 18.7282C20.1544 17.7743 19.2005 16.8254 18.2466 15.8765Z" fill="#003E83"/>
<path d="M17.2926 11.8961L19.1354 11.5815C18.8458 9.88849 18.0467 8.35528 16.8331 7.1367C15.5496 5.8532 13.9265 5.04414 12.1386 4.79443L11.8789 6.64727C13.2623 6.84205 14.5208 7.46632 15.5147 8.46016C16.4536 9.39906 17.0679 10.5877 17.2926 11.8961Z" fill="#003E83"/>
<path d="M20.1741 3.88547C18.0466 1.75795 15.3548 0.414516 12.3832 0L12.1235 1.85284C14.6905 2.21242 17.0178 3.37606 18.8557 5.20892C20.5986 6.95189 21.7423 9.15432 22.1568 11.5765L23.9997 11.2619C23.5152 8.45514 22.1918 5.90811 20.1741 3.88547Z" fill="#003E83"/>
</svg>
