<svg width="21" height="20" viewBox="0 0 21 20" fill="none" xmlns="http://www.w3.org/2000/svg">
<path d="M19.2625 5.01514C18.1211 5.01514 17.068 4.63701 16.2223 3.99912C15.2523 3.26787 14.5555 2.19521 14.3094 0.958887C14.2484 0.653418 14.2156 0.338184 14.2125 0.0151367H10.952V8.92451L10.948 13.8046C10.948 15.1093 10.0984 16.2155 8.9207 16.6046C8.57891 16.7175 8.20976 16.771 7.82539 16.7499C7.33476 16.7229 6.875 16.5749 6.47539 16.3358C5.625 15.8272 5.04844 14.9046 5.03281 13.8491C5.0082 12.1995 6.3418 10.8546 7.99023 10.8546C8.31562 10.8546 8.62812 10.9077 8.9207 11.0042V8.56904V7.69365C8.61211 7.64795 8.29805 7.62412 7.98047 7.62412C6.17617 7.62412 4.48867 8.37412 3.28242 9.72529C2.3707 10.7464 1.82383 12.0491 1.73945 13.4151C1.6289 15.2097 2.28554 16.9155 3.55898 18.1741C3.74609 18.3589 3.94258 18.5304 4.14805 18.6886C5.23984 19.5288 6.57461 19.9843 7.98047 19.9843C8.29805 19.9843 8.61211 19.9608 8.9207 19.9151C10.234 19.7206 11.4457 19.1194 12.402 18.1741C13.577 17.0128 14.2262 15.471 14.2332 13.83L14.2164 6.54248C14.777 6.9749 15.3898 7.33272 16.0477 7.61045C17.0707 8.04209 18.1555 8.26084 19.2719 8.26045V5.89287V5.01436C19.2727 5.01514 19.2633 5.01514 19.2625 5.01514Z" fill="white"/>
</svg>
