<svg width="21" height="20" viewBox="0 0 21 20" fill="none" xmlns="http://www.w3.org/2000/svg">
<path d="M10.5 6.94336C8.81333 6.94336 7.44333 8.31336 7.44333 10C7.44333 11.6867 8.81333 13.06 10.5 13.06C12.1867 13.06 13.56 11.6867 13.56 10C13.56 8.31336 12.1867 6.94336 10.5 6.94336Z" fill="white"/>
<path d="M15.1133 1.6665H5.88666C3.83666 1.6665 2.16666 3.3365 2.16666 5.3865V14.6132C2.16666 16.6665 3.83666 18.3332 5.88666 18.3332H15.1133C17.1667 18.3332 18.8333 16.6665 18.8333 14.6132V5.3865C18.8333 3.3365 17.1667 1.6665 15.1133 1.6665ZM10.5 15.3998C7.52333 15.3998 5.1 12.9765 5.1 9.99984C5.1 7.02317 7.52333 4.60317 10.5 4.60317C13.4767 4.60317 15.9 7.02317 15.9 9.99984C15.9 12.9765 13.4767 15.3998 10.5 15.3998ZM16.0133 5.58317C15.3833 5.58317 14.87 5.07317 14.87 4.44317C14.87 3.81317 15.3833 3.29984 16.0133 3.29984C16.6433 3.29984 17.1567 3.81317 17.1567 4.44317C17.1567 5.07317 16.6433 5.58317 16.0133 5.58317Z" fill="white"/>
</svg>
