<svg width="21" height="20" viewBox="0 0 21 20" fill="none" xmlns="http://www.w3.org/2000/svg">
<g clip-path="url(#clip0_2036_3006)">
<path d="M19.7205 4.17066C18.9985 3.31247 17.6656 2.9624 15.1201 2.9624H5.87974C3.27594 2.9624 1.92045 3.33505 1.20123 4.24873C0.5 5.13956 0.5 6.45214 0.5 8.26879V11.7313C0.5 15.2507 1.332 17.0376 5.87974 17.0376H15.1201C17.3276 17.0376 18.5508 16.7287 19.3422 15.9714C20.1537 15.1947 20.5 13.9267 20.5 11.7313V8.26879C20.5 6.35298 20.4457 5.03266 19.7205 4.17066ZM13.3401 10.4781L9.14406 12.671C9.05026 12.7201 8.94768 12.7444 8.84523 12.7444C8.72923 12.7444 8.61348 12.7132 8.51097 12.6511C8.31793 12.5341 8.20006 12.3249 8.20006 12.0992V7.72737C8.20006 7.50208 8.31761 7.29305 8.51026 7.17601C8.70297 7.05898 8.94265 7.05098 9.14258 7.15485L13.3386 9.33369C13.5521 9.44453 13.6861 9.66492 13.6865 9.90537C13.6867 10.146 13.5532 10.3667 13.3401 10.4781Z" fill="white"/>
</g>
<defs>
<clipPath id="clip0_2036_3006">
<rect width="20" height="20" fill="white" transform="translate(0.5)"/>
</clipPath>
</defs>
</svg>
