<svg width="40" height="40" viewBox="0 0 40 40" fill="none" xmlns="http://www.w3.org/2000/svg">
<path d="M30.9565 8.04688C30.9565 8.59681 30.5106 9.04297 29.9604 9.04297C29.4102 9.04297 28.9643 8.59681 28.9643 8.04688C28.9643 7.49669 29.4102 7.05078 29.9604 7.05078C30.5106 7.05078 30.9565 7.49669 30.9565 8.04688Z" fill="#003E83"/>
<path d="M26.9721 8.04688C26.9721 8.59681 26.5262 9.04297 25.976 9.04297C25.4261 9.04297 24.9799 8.59681 24.9799 8.04688C24.9799 7.49669 25.4261 7.05078 25.976 7.05078C26.5262 7.05078 26.9721 7.49669 26.9721 8.04688Z" fill="#003E83"/>
<path d="M22.9878 8.04688C22.9878 8.59681 22.5418 9.04297 21.9919 9.04297C21.4417 9.04297 20.9958 8.59681 20.9958 8.04688C20.9958 7.49669 21.4417 7.05078 21.9919 7.05078C22.5418 7.05078 22.9878 7.49669 22.9878 8.04688Z" fill="#003E83"/>
<path d="M36.1241 31.8982L35.0367 30.8108L35.0074 6.6521C35.0074 4.63837 33.369 3 31.3553 3H6.6521C4.63837 3 3 4.63837 3 6.6521V31.3553C3 33.369 4.63837 35.0074 6.6521 35.0074H30.7812L31.8982 36.1241C33.0658 37.2919 34.956 37.2922 36.1241 36.1241C37.2919 34.9566 37.2922 33.066 36.1241 31.8982ZM6.6521 4.99219H31.3553C32.2705 4.99219 33.0152 5.73693 33.0152 6.65339L33.0204 11.0349H4.99219V6.6521C4.99219 5.73693 5.73693 4.99219 6.6521 4.99219ZM6.6521 33.0152C5.73693 33.0152 4.99219 32.2705 4.99219 31.3553V13.0271H33.023L33.0422 28.8163L30.5989 26.373C32.2196 21.8413 28.8386 17.059 24.0314 17.059C20.1868 17.059 17.0587 20.1868 17.0587 24.0314C17.0587 28.8453 21.8462 32.2178 26.373 30.5989L28.7891 33.0152H6.6521ZM24.0314 29.0119C21.2854 29.0119 19.0509 26.7777 19.0509 24.0314C19.0509 21.2851 21.2851 19.0509 24.0314 19.0509C26.7777 19.0509 29.0119 21.2851 29.0119 24.0314C29.0119 26.7777 26.7777 29.0119 24.0314 29.0119ZM34.7153 34.7156C34.3262 35.1049 33.6961 35.1049 33.3068 34.7156L28.2049 29.6134C28.7387 29.2134 29.2134 28.7387 29.6134 28.2049L34.7156 33.3068C35.1049 33.6961 35.1049 34.3262 34.7153 34.7156Z" fill="#003E83"/>
<path d="M8.04682 17.0115H18.0075C18.5577 17.0115 19.0036 16.5656 19.0036 16.0154C19.0036 15.4652 18.5577 15.0193 18.0075 15.0193H8.04682C7.49663 15.0193 7.05072 15.4652 7.05072 16.0154C7.05072 16.5656 7.49663 17.0115 8.04682 17.0115Z" fill="#003E83"/>
<path d="M14.0231 19.0037H8.04682C7.49663 19.0037 7.05072 19.4496 7.05072 19.9998C7.05072 20.5497 7.49663 20.9959 8.04682 20.9959H14.0231C14.5733 20.9959 15.0192 20.5497 15.0192 19.9998C15.0192 19.4496 14.5733 19.0037 14.0231 19.0037Z" fill="#003E83"/>
<path d="M14.0231 22.988H8.04682C7.49663 22.988 7.05072 23.4339 7.05072 23.9839C7.05072 24.5341 7.49663 24.98 8.04682 24.98H14.0231C14.5733 24.98 15.0192 24.5341 15.0192 23.9839C15.0192 23.4339 14.5733 22.988 14.0231 22.988Z" fill="#003E83"/>
<path d="M14.0231 26.9722H8.04682C7.49663 26.9722 7.05072 27.4183 7.05072 27.9683C7.05072 28.5185 7.49663 28.9644 8.04682 28.9644H14.0231C14.5733 28.9644 15.0192 28.5185 15.0192 27.9683C15.0192 27.4183 14.5733 26.9722 14.0231 26.9722Z" fill="#003E83"/>
</svg>
