<svg width="40" height="40" viewBox="0 0 40 40" fill="none" xmlns="http://www.w3.org/2000/svg">
<path d="M36.4333 33.1909V20.0001C36.4318 19.9124 36.4094 19.8264 36.3682 19.749H36.3738L34.9866 16.9752C34.701 16.3969 34.1112 16.0316 33.4663 16.0334H29.6333V15.4667C29.6333 15.3165 29.5736 15.1724 29.4673 15.0661L26.3994 11.9982C26.1954 11.7964 25.9432 11.6502 25.6667 11.5737V7.75158L26.8 7.44728V8.81975V8.82371C26.7994 9.40562 27.0902 9.94917 27.5746 10.2715C27.7431 10.3839 27.9587 10.3979 28.1402 10.3082C28.3217 10.2185 28.4416 10.0388 28.4547 9.83671C28.4678 9.63466 28.3721 9.44097 28.2036 9.32861C28.0346 9.21629 27.9331 9.02669 27.9333 8.82371V8.81975V7.09311C28.33 6.86401 28.5497 6.41865 28.4902 5.96447C28.4307 5.51028 28.1036 5.13658 27.6613 5.01741L20.2913 3.03861C20.1004 2.98762 19.8996 2.98762 19.7087 3.03861L12.3387 5.01741C11.843 5.15273 11.4992 5.60297 11.4992 6.11674C11.4992 6.63052 11.843 7.08076 12.3387 7.21608L14.3333 7.75158V11.5001H14.2976C13.7938 11.5003 13.3162 11.7246 12.9943 12.1121L10.501 15.1041C10.4151 15.2055 10.3675 15.3338 10.3667 15.4667V16.0334H6.53373C5.88928 16.0312 5.29962 16.3956 5.01337 16.9729L3.62617 19.7468H3.63183C3.59021 19.8248 3.56787 19.9117 3.56667 20.0001V33.1909C3.21717 33.3918 3.00122 33.7637 3 34.1667V35.3001C3 35.926 3.50741 36.4334 4.13333 36.4334H11.6575C11.8584 36.7829 12.2302 36.9989 12.6333 37.0001H27.3667C27.7698 36.9989 28.1416 36.7829 28.3425 36.4334H35.8667C36.4926 36.4334 37 35.926 37 35.3001V34.1667C36.9988 33.7637 36.7828 33.3918 36.4333 33.1909ZM27.9333 33.0334H27.3667V20.5667H35.3V33.0334H27.9333ZM21.7 33.0334H18.3V26.8001H21.7V33.0334ZM22.2667 25.6667H17.7333C17.4204 25.6667 17.1667 25.9205 17.1667 26.2334V33.0334H13.7667V20.5667H26.2333V33.0334H22.8333V26.2334C22.8333 25.9205 22.5796 25.6667 22.2667 25.6667ZM28.5 16.0334V17.1667H11.5V16.0334H28.5ZM27.3667 18.3001V19.4334H12.6333V18.3001H27.3667ZM33.4663 17.1667C33.6811 17.1661 33.8776 17.2876 33.9729 17.4801L34.9498 19.4334H28.5V18.3001C29.1259 18.3001 29.6333 17.7927 29.6333 17.1667H33.4663ZM20 4.13341L27.3746 6.11674H27.3672L20.0028 8.10008L12.6333 6.11221L20 4.13341ZM15.4667 8.05588L19.7087 9.19488C19.8995 9.24625 20.1005 9.24625 20.2913 9.19488L24.5333 8.05588V11.5001H15.4667V8.05588ZM13.8624 12.8374C13.97 12.7082 14.1295 12.6335 14.2976 12.6334H25.1969C25.3474 12.6333 25.4917 12.693 25.5981 12.7994L27.6987 14.9001H12.1432L13.8624 12.8374ZM6.02713 17.4801C6.12243 17.2876 6.31893 17.1661 6.53373 17.1667H10.3667C10.3667 17.7927 10.8741 18.3001 11.5 18.3001V19.4334H5.0502L6.02713 17.4801ZM4.13333 34.1667H11.5V35.3001H4.13333V34.1667ZM12.0667 33.0334H4.7V20.5667H12.6333V33.0334H12.0667ZM12.6333 35.8667V34.1667H27.3667V35.8667H12.6333ZM35.8667 35.3001H28.5V34.1667H35.8667V35.3001Z" fill="#003E83" stroke="#003E83" stroke-width="0.3"/>
<path d="M18.3 21.7001C17.987 21.7001 17.7333 21.9538 17.7333 22.2667V23.4001C17.7333 23.713 17.987 23.9667 18.3 23.9667C18.613 23.9667 18.8667 23.713 18.8667 23.4001V22.2667C18.8667 21.9538 18.613 21.7001 18.3 21.7001Z" fill="#003E83" stroke="#003E83" stroke-width="0.3"/>
<path d="M10.3667 22.2667C10.0537 22.2667 9.79999 22.5204 9.79999 22.8334V23.9667C9.79999 24.2797 10.0537 24.5334 10.3667 24.5334C10.6796 24.5334 10.9333 24.2797 10.9333 23.9667V22.8334C10.9333 22.5204 10.6796 22.2667 10.3667 22.2667Z" fill="#003E83" stroke="#003E83" stroke-width="0.3"/>
<path d="M6.96666 22.2667C6.6537 22.2667 6.39999 22.5204 6.39999 22.8334V23.9667C6.39999 24.2797 6.6537 24.5334 6.96666 24.5334C7.27962 24.5334 7.53333 24.2797 7.53333 23.9667V22.8334C7.53333 22.5204 7.27962 22.2667 6.96666 22.2667Z" fill="#003E83" stroke="#003E83" stroke-width="0.3"/>
<path d="M10.3667 25.6667C10.0537 25.6667 9.79999 25.9205 9.79999 26.2334V27.3667C9.79999 27.6797 10.0537 27.9334 10.3667 27.9334C10.6796 27.9334 10.9333 27.6797 10.9333 27.3667V26.2334C10.9333 25.9205 10.6796 25.6667 10.3667 25.6667Z" fill="#003E83" stroke="#003E83" stroke-width="0.3"/>
<path d="M6.96666 25.6667C6.6537 25.6667 6.39999 25.9205 6.39999 26.2334V27.3667C6.39999 27.6797 6.6537 27.9334 6.96666 27.9334C7.27962 27.9334 7.53333 27.6797 7.53333 27.3667V26.2334C7.53333 25.9205 7.27962 25.6667 6.96666 25.6667Z" fill="#003E83" stroke="#003E83" stroke-width="0.3"/>
<path d="M10.3667 29.0668C10.0537 29.0668 9.79999 29.3205 9.79999 29.6334V30.7668C9.79999 31.0797 10.0537 31.3334 10.3667 31.3334C10.6796 31.3334 10.9333 31.0797 10.9333 30.7668V29.6334C10.9333 29.3205 10.6796 29.0668 10.3667 29.0668Z" fill="#003E83" stroke="#003E83" stroke-width="0.3"/>
<path d="M6.96666 29.0668C6.6537 29.0668 6.39999 29.3205 6.39999 29.6334V30.7668C6.39999 31.0797 6.6537 31.3334 6.96666 31.3334C7.27962 31.3334 7.53333 31.0797 7.53333 30.7668V29.6334C7.53333 29.3205 7.27962 29.0668 6.96666 29.0668Z" fill="#003E83" stroke="#003E83" stroke-width="0.3"/>
<path d="M33.0333 22.2667C32.7203 22.2667 32.4666 22.5204 32.4666 22.8334V23.9667C32.4666 24.2797 32.7203 24.5334 33.0333 24.5334C33.3463 24.5334 33.6 24.2797 33.6 23.9667V22.8334C33.6 22.5204 33.3463 22.2667 33.0333 22.2667Z" fill="#003E83" stroke="#003E83" stroke-width="0.3"/>
<path d="M29.6333 22.2667C29.3204 22.2667 29.0667 22.5204 29.0667 22.8334V23.9667C29.0667 24.2797 29.3204 24.5334 29.6333 24.5334C29.9463 24.5334 30.2 24.2797 30.2 23.9667V22.8334C30.2 22.5204 29.9463 22.2667 29.6333 22.2667Z" fill="#003E83" stroke="#003E83" stroke-width="0.3"/>
<path d="M33.0333 25.6667C32.7203 25.6667 32.4666 25.9205 32.4666 26.2334V27.3667C32.4666 27.6797 32.7203 27.9334 33.0333 27.9334C33.3463 27.9334 33.6 27.6797 33.6 27.3667V26.2334C33.6 25.9205 33.3463 25.6667 33.0333 25.6667Z" fill="#003E83" stroke="#003E83" stroke-width="0.3"/>
<path d="M29.6333 25.6667C29.3204 25.6667 29.0667 25.9205 29.0667 26.2334V27.3667C29.0667 27.6797 29.3204 27.9334 29.6333 27.9334C29.9463 27.9334 30.2 27.6797 30.2 27.3667V26.2334C30.2 25.9205 29.9463 25.6667 29.6333 25.6667Z" fill="#003E83" stroke="#003E83" stroke-width="0.3"/>
<path d="M33.0333 29.0668C32.7203 29.0668 32.4666 29.3205 32.4666 29.6334V30.7668C32.4666 31.0797 32.7203 31.3334 33.0333 31.3334C33.3463 31.3334 33.6 31.0797 33.6 30.7668V29.6334C33.6 29.3205 33.3463 29.0668 33.0333 29.0668Z" fill="#003E83" stroke="#003E83" stroke-width="0.3"/>
<path d="M29.6333 29.0668C29.3204 29.0668 29.0667 29.3205 29.0667 29.6334V30.7668C29.0667 31.0797 29.3204 31.3334 29.6333 31.3334C29.9463 31.3334 30.2 31.0797 30.2 30.7668V29.6334C30.2 29.3205 29.9463 29.0668 29.6333 29.0668Z" fill="#003E83" stroke="#003E83" stroke-width="0.3"/>
<path d="M21.7 21.7001C21.387 21.7001 21.1333 21.9538 21.1333 22.2667V23.4001C21.1333 23.713 21.387 23.9667 21.7 23.9667C22.013 23.9667 22.2667 23.713 22.2667 23.4001V22.2667C22.2667 21.9538 22.013 21.7001 21.7 21.7001Z" fill="#003E83" stroke="#003E83" stroke-width="0.3"/>
</svg>
