<svg width="40" height="40" viewBox="0 0 40 40" fill="none" xmlns="http://www.w3.org/2000/svg">
<mask id="mask0_2036_1612" style="mask-type:luminance" maskUnits="userSpaceOnUse" x="3" y="3" width="34" height="34">
<path d="M3 3H37V37H3V3Z" fill="white"/>
</mask>
<g mask="url(#mask0_2036_1612)">
<path d="M32.0029 11.998C32.0029 11.998 32.0027 11.9978 32.0023 11.9974C30.9414 10.9365 30.3453 9.49752 30.3453 7.99707C30.3453 6.49662 30.9414 5.05767 32.0023 3.99669L32.0029 3.99609H6.49669C5.11564 3.99609 3.99609 5.11564 3.99609 6.49669V9.49745C3.99609 10.8785 5.11564 11.998 6.49669 11.998H32.0029Z" stroke="#003E83" stroke-width="2" stroke-miterlimit="10" stroke-linecap="round" stroke-linejoin="round"/>
<path d="M32.0029 3.99609H6.49669C5.11564 3.99609 3.99609 5.11564 3.99609 6.49669V9.49745C3.99609 10.8785 5.11564 11.998 6.49669 11.998H32.0029" stroke="#003E83" stroke-width="2" stroke-miterlimit="10" stroke-linecap="round" stroke-linejoin="round"/>
<path d="M36.0039 11.998H10.4977C9.11661 11.998 7.99707 13.1176 7.99707 14.4986V17.4994C7.99707 18.8805 9.11661 20 10.4977 20H36.0039" stroke="#003E83" stroke-width="2" stroke-miterlimit="10" stroke-linecap="round" stroke-linejoin="round"/>
<path d="M32.0029 20H6.49669C5.11564 20 3.99609 21.1195 3.99609 22.5006V25.5014C3.99609 26.8824 5.11564 28.002 6.49669 28.002H32.0029" stroke="#003E83" stroke-width="2" stroke-miterlimit="10" stroke-linecap="round" stroke-linejoin="round"/>
<path d="M36.0039 28.002H10.4977C9.11661 28.002 7.99707 29.1215 7.99707 30.5025V33.5033C7.99707 34.8844 9.11661 36.0039 10.4977 36.0039H36.0039" stroke="#003E83" stroke-width="2" stroke-miterlimit="10" stroke-linecap="round" stroke-linejoin="round"/>
<path d="M32.0029 28.002C32.0029 28.002 32.0027 28.0018 32.0023 28.0014C30.9414 26.9404 30.3453 25.5014 30.3453 24.001C30.3453 22.5005 30.9414 21.0616 32.0023 20.0006C32.0027 20.0002 32.0029 20 32.0029 20H6.49669C5.11564 20 3.99609 21.1195 3.99609 22.5006V25.5014C3.99609 26.8824 5.11564 28.002 6.49669 28.002H32.0029Z" stroke="#003E83" stroke-width="2" stroke-miterlimit="10" stroke-linecap="round" stroke-linejoin="round"/>
<path d="M36.0039 20C36.0039 20 36.0037 19.9998 36.0033 19.9994C34.9424 18.9384 34.3463 17.4995 34.3463 15.999C34.3463 14.4986 34.9424 13.0596 36.0033 11.9986C36.0037 11.9982 36.0039 11.998 36.0039 11.998H10.4977C9.11661 11.998 7.99707 13.1176 7.99707 14.4986V17.4994C7.99707 18.8805 9.11661 20 10.4977 20H36.0039Z" stroke="#003E83" stroke-width="2" stroke-miterlimit="10" stroke-linecap="round" stroke-linejoin="round"/>
<path d="M36.0039 36.0039C36.0039 36.0039 36.0037 36.0037 36.0033 36.0033C34.9424 34.9423 34.3463 33.5034 34.3463 32.0029C34.3463 30.5025 34.9424 29.0635 36.0033 28.0026C36.0037 28.0022 36.0039 28.002 36.0039 28.002H10.4977C9.11661 28.002 7.99707 29.1215 7.99707 30.5025V33.5033C7.99707 34.8844 9.11661 36.0039 10.4977 36.0039H36.0039Z" stroke="#003E83" stroke-width="2" stroke-miterlimit="10" stroke-linecap="round" stroke-linejoin="round"/>
<path d="M17.9995 11.9981H13.9985V16.4991L15.999 15.5656L17.9995 16.4991V11.9981Z" stroke="#003E83" stroke-width="2" stroke-miterlimit="10" stroke-linecap="round" stroke-linejoin="round"/>
<path d="M26.0015 20H22.0005V24.5011L24.001 23.5676L26.0015 24.5011V20Z" stroke="#003E83" stroke-width="2" stroke-miterlimit="10" stroke-linecap="round" stroke-linejoin="round"/>
</g>
</svg>
