<svg width="40" height="40" viewBox="0 0 40 40" fill="none" xmlns="http://www.w3.org/2000/svg">
<path d="M36.124 13.6994C34.9588 12.5341 33.0628 12.5342 31.8973 13.6996C31.5388 14.0585 29.2499 16.3492 28.9003 16.6992V8.80482C28.9003 8.00656 28.5894 7.25612 28.0249 6.69169L25.2074 3.87408C24.643 3.30958 23.8925 2.99878 23.0942 2.99878H5.98849C4.34064 2.99878 3 4.33942 3 5.98727V34.0127C3 35.6606 4.34064 37.0012 5.98849 37.0012H25.9118C27.5596 37.0012 28.9003 35.6606 28.9003 34.0127V25.1555L36.1239 17.9258C37.2919 16.7579 37.2922 14.8674 36.124 13.6994ZM22.9234 4.99111C23.1116 4.99111 23.4742 4.9585 23.7987 5.28285L26.6162 8.10047C26.9323 8.41665 26.908 8.76312 26.908 8.97577H22.9234V4.99111ZM26.9079 34.0127C26.9079 34.562 26.4611 35.0089 25.9118 35.0089H5.98849C5.43921 35.0089 4.99233 34.562 4.99233 34.0127V5.98727C4.99233 5.43799 5.43921 4.99111 5.98849 4.99111H20.931V9.97193C20.931 10.5221 21.377 10.9681 21.9271 10.9681H26.9079V18.6932C26.9079 18.6932 23.969 21.6347 23.9689 21.6348L22.5608 23.0429C22.4514 23.1523 22.369 23.2856 22.3201 23.4323L20.9112 27.6587C20.7919 28.0167 20.8851 28.4113 21.1519 28.6781C21.4191 28.9453 21.8139 29.038 22.1713 28.9188L26.3977 27.51C26.5444 27.4611 26.6778 27.3787 26.7871 27.2693L26.9079 27.1485V34.0127ZM24.6739 23.7474L26.0827 25.1561L25.5445 25.6943L23.4314 26.3986L24.1358 24.2854L24.6739 23.7474ZM27.4912 23.747L26.0824 22.3383C26.8326 21.5875 30.1643 18.2528 30.871 17.5456L32.2797 18.9544L27.4912 23.747ZM34.7149 16.5173L33.688 17.545L32.2792 16.1363L33.3064 15.1082C33.6951 14.7197 34.3269 14.7198 34.7153 15.1082C35.1036 15.4967 35.1057 16.1264 34.7149 16.5173Z" fill="#003E83"/>
<path d="M21.9271 12.9604H7.98081C7.43067 12.9604 6.98465 13.4065 6.98465 13.9566C6.98465 14.5068 7.43067 14.9528 7.98081 14.9528H21.9271C22.4773 14.9528 22.9233 14.5068 22.9233 13.9566C22.9233 13.4065 22.4773 12.9604 21.9271 12.9604Z" fill="#003E83"/>
<path d="M17.9425 16.9451H7.98081C7.43067 16.9451 6.98465 17.3911 6.98465 17.9412C6.98465 18.4914 7.43067 18.9374 7.98081 18.9374H17.9425C18.4926 18.9374 18.9386 18.4914 18.9386 17.9412C18.9386 17.3911 18.4926 16.9451 17.9425 16.9451Z" fill="#003E83"/>
<path d="M17.9425 20.9297H7.98081C7.43067 20.9297 6.98465 21.3757 6.98465 21.9259C6.98465 22.476 7.43067 22.922 7.98081 22.922H17.9425C18.4926 22.922 18.9386 22.476 18.9386 21.9259C18.9386 21.3757 18.4926 20.9297 17.9425 20.9297Z" fill="#003E83"/>
<path d="M17.9425 24.9144H7.98081C7.43067 24.9144 6.98465 25.3604 6.98465 25.9106C6.98465 26.4607 7.43067 26.9068 7.98081 26.9068H17.9425C18.4926 26.9068 18.9386 26.4607 18.9386 25.9106C18.9386 25.3604 18.4926 24.9144 17.9425 24.9144Z" fill="#003E83"/>
<path d="M21.9271 31.0242H15.9501C15.4 31.0242 14.954 31.4702 14.954 32.0203C14.954 32.5705 15.4 33.0165 15.9501 33.0165H21.9271C22.4773 33.0165 22.9233 32.5705 22.9233 32.0203C22.9233 31.4702 22.4773 31.0242 21.9271 31.0242Z" fill="#003E83"/>
</svg>
