<svg width="40" height="40" viewBox="0 0 40 40" fill="none" xmlns="http://www.w3.org/2000/svg">
<path d="M36.0039 7.50075H30.6638L20.3151 4.05111C20.1058 3.98137 19.8793 3.98303 19.671 4.0559L9.82867 7.50075H3.99633C3.44609 7.50075 3 7.94684 3 8.49708V31.0029C3 31.5532 3.44609 31.9993 3.99633 31.9993H13.0023V34.0074H9.99771C9.44747 34.0074 9.00138 34.4535 9.00138 35.0037C9.00138 35.554 9.44747 36.0001 9.99771 36.0001H30.0025C30.5527 36.0001 30.9988 35.554 30.9988 35.0037C30.9988 34.4535 30.5527 34.0074 30.0025 34.0074H26.9979V31.9992H36.0039C36.5541 31.9992 37.0002 31.5531 37.0002 31.0028V8.49708C37.0002 7.94678 36.5542 7.50075 36.0039 7.50075ZM14.495 11.1268C19.8319 12.999 19.758 12.9943 20.0001 12.9943C20.2308 12.9943 20.157 12.999 25.5052 11.2132V13.8143L20.0001 15.9319L14.495 13.8143V11.1268ZM20.0079 6.04916L27.3519 8.49715L20.0079 10.9451L13.0137 8.49715L20.0079 6.04916ZM25.0051 34.0074H14.995V31.9992H25.0052V34.0074H25.0051ZM35.0075 30.0065C30.6163 30.0065 11.6267 30.0065 4.99267 30.0065V9.49342H9.828L12.5024 10.4294V14.4986C12.5024 14.9108 12.7562 15.2805 13.141 15.4285C19.7895 17.9921 19.7357 17.9957 20.0001 17.9957C20.2644 17.9957 20.2135 17.9977 26.8592 15.4285C27.244 15.2805 27.4978 14.9108 27.4978 14.4986V10.549L29.5064 9.87946V15.4989C29.5064 16.0492 29.9525 16.4952 30.5028 16.4952C31.053 16.4952 31.4991 16.0492 31.4991 15.4989V9.49342H35.0075V30.0065Z" fill="#003E83"/>
<path d="M11.998 21.0042H7.9971C7.44685 21.0042 7.00076 21.4502 7.00076 22.0005V26.0014C7.00076 26.5517 7.44685 26.9978 7.9971 26.9978H11.998C12.5483 26.9978 12.9944 26.5517 12.9944 26.0014V22.0005C12.9944 21.4502 12.5483 21.0042 11.998 21.0042ZM11.0017 25.0051H8.99343V22.9968H11.0017V25.0051Z" fill="#003E83"/>
<path d="M15.999 21.0042C15.4488 21.0042 15.0027 21.4502 15.0027 22.0005C15.0027 22.5507 15.4488 22.9968 15.999 22.9968H32.0029C32.5531 22.9968 32.9992 22.5507 32.9992 22.0005C32.9992 21.4502 32.5531 21.0042 32.0029 21.0042H15.999Z" fill="#003E83"/>
<path d="M32.0029 25.0051H15.999C15.4488 25.0051 15.0027 25.4512 15.0027 26.0015C15.0027 26.5517 15.4488 26.9978 15.999 26.9978H32.0029C32.5531 26.9978 32.9992 26.5517 32.9992 26.0015C32.9992 25.4512 32.5531 25.0051 32.0029 25.0051Z" fill="#003E83"/>
</svg>
