<svg width="40" height="40" viewBox="0 0 40 40" fill="none" xmlns="http://www.w3.org/2000/svg">
<g clip-path="url(#clip0_2036_1453)">
<path d="M21.1679 23.5151H7.10578C6.4586 23.5151 5.93393 24.0398 5.93393 24.687C5.93393 25.3342 6.4586 25.8588 7.10578 25.8588H21.1679C21.8151 25.8588 22.3398 25.3342 22.3398 24.687C22.3398 24.0398 21.8151 23.5151 21.1679 23.5151Z" fill="#003E83"/>
<path d="M7.10578 21.1713H18.8282C19.4753 21.1713 20 20.6467 20 19.9995C20 19.3523 19.4753 18.8276 18.8282 18.8276H7.10578C6.4586 18.8276 5.93393 19.3523 5.93393 19.9995C5.93393 20.6467 6.4586 21.1713 7.10578 21.1713Z" fill="#003E83"/>
<path d="M35.234 12.8903C35.234 8.36721 31.5542 4.68738 27.0311 4.68738C22.8518 4.68738 19.3928 7.8291 18.891 11.8747H5.8597C2.62891 11.8747 0.000457764 14.5032 0.000457764 17.7339V27.265C0.000457764 30.1207 2.05408 32.5058 4.76207 33.0211V38.8272C4.76207 39.8669 6.01547 40.3864 6.75319 39.6651L13.4427 33.1242H22.3398C25.5706 33.1242 28.199 30.4958 28.199 27.265V21.0097C32.1709 20.441 35.234 17.0169 35.234 12.8903ZM22.3398 30.7805H12.965C12.6588 30.7805 12.3647 30.9004 12.1457 31.1145L7.10576 36.0425V31.9524C7.10576 31.3052 6.58109 30.7805 5.93391 30.7805H5.8597C3.92123 30.7805 2.34415 29.2034 2.34415 27.265V17.7339C2.34415 15.7955 3.92123 14.2184 5.8597 14.2184H18.9362C19.5104 17.7303 22.3223 20.4993 25.8553 21.0086V27.265C25.8553 29.2034 24.2782 30.7805 22.3398 30.7805ZM27.0311 18.7495C23.8003 18.7495 21.1718 16.1211 21.1718 12.8903C21.1718 9.65953 23.8003 7.03107 27.0311 7.03107C30.2619 7.03107 32.8903 9.65953 32.8903 12.8903C32.8903 16.1211 30.2619 18.7495 27.0311 18.7495Z" fill="#003E83"/>
<path d="M27.012 9.4388L25.8402 9.82941C25.2262 10.0341 24.8944 10.6978 25.099 11.3117C25.372 12.1305 26.2029 12.1107 26.2107 12.1133V15.2301C26.2107 15.8772 26.7354 16.4019 27.3826 16.4019C28.0297 16.4019 28.5544 15.8772 28.5544 15.2301V10.5505C28.5545 9.75168 27.7708 9.18615 27.012 9.4388Z" fill="#003E83"/>
<path d="M27.035 3.59757C27.6822 3.59757 28.2069 3.0729 28.2069 2.42572V1.17185C28.2069 0.524675 27.6822 0 27.035 0C26.3878 0 25.8632 0.524675 25.8632 1.17185V2.42572C25.8632 3.0729 26.3878 3.59757 27.035 3.59757Z" fill="#003E83"/>
<path d="M18.6941 6.35968C19.1516 6.81734 19.8937 6.81742 20.3513 6.35968C20.809 5.90203 20.809 5.16007 20.3513 4.70242L19.4647 3.81578C19.0071 3.35812 18.2651 3.35812 17.8074 3.81578C17.3498 4.27343 17.3498 5.01539 17.8074 5.47304L18.6941 6.35968Z" fill="#003E83"/>
<path d="M35.3604 19.7335C34.9028 19.2758 34.1608 19.2758 33.7031 19.7335C33.2455 20.1912 33.2455 20.9331 33.7031 21.3908L34.5898 22.2774C35.0474 22.7351 35.7894 22.7351 36.247 22.2774C36.7047 21.8198 36.7047 21.0778 36.247 20.6201L35.3604 19.7335Z" fill="#003E83"/>
<path d="M38.8277 11.8826H37.5738C36.9266 11.8826 36.4019 12.4072 36.4019 13.0544C36.4019 13.7016 36.9266 14.2263 37.5738 14.2263H38.8277C39.4748 14.2263 39.9995 13.7016 39.9995 13.0544C39.9995 12.4072 39.4748 11.8826 38.8277 11.8826Z" fill="#003E83"/>
<path d="M35.3714 6.37067L36.2581 5.48403C36.7157 5.02637 36.7157 4.28442 36.2581 3.82676C35.8005 3.36911 35.0584 3.36911 34.6008 3.82676L33.7142 4.7134C33.2565 5.17106 33.2565 5.91301 33.7142 6.37067C34.1717 6.82825 34.9138 6.82833 35.3714 6.37067Z" fill="#003E83"/>
</g>
<defs>
<clipPath id="clip0_2036_1453">
<rect width="40" height="40" fill="white"/>
</clipPath>
</defs>
</svg>
