<svg width="24" height="7" viewBox="0 0 24 7" fill="none" xmlns="http://www.w3.org/2000/svg">
<path d="M3.53688 6.576C3.01421 6.576 2.52888 6.45333 2.08088 6.208C1.63288 5.952 1.27554 5.60533 1.00888 5.168C0.742208 4.73067 0.608875 4.24533 0.608875 3.712C0.608875 3.22133 0.731542 2.75733 0.976875 2.32C1.23288 1.88267 1.57954 1.53067 2.01688 1.264C2.46488 0.986666 2.97154 0.848 3.53688 0.848C4.05954 0.848 4.53954 0.976 4.97688 1.232C5.41421 1.47733 5.76621 1.81333 6.03288 2.24C6.31021 2.66667 6.44888 3.15733 6.44888 3.712C6.44888 4.23467 6.31554 4.71467 6.04888 5.152C5.79288 5.58933 5.44088 5.936 4.99288 6.192C4.55554 6.448 4.07021 6.576 3.53688 6.576ZM12.0056 6.576C11.483 6.576 10.9976 6.45333 10.5496 6.208C10.1016 5.952 9.74429 5.60533 9.47763 5.168C9.21096 4.73067 9.07763 4.24533 9.07763 3.712C9.07763 3.22133 9.20029 2.75733 9.44563 2.32C9.70163 1.88267 10.0483 1.53067 10.4856 1.264C10.9336 0.986666 11.4403 0.848 12.0056 0.848C12.5283 0.848 13.0083 0.976 13.4456 1.232C13.883 1.47733 14.235 1.81333 14.5016 2.24C14.779 2.66667 14.9176 3.15733 14.9176 3.712C14.9176 4.23467 14.7843 4.71467 14.5176 5.152C14.2616 5.58933 13.9096 5.936 13.4616 6.192C13.0243 6.448 12.539 6.576 12.0056 6.576ZM20.4744 6.576C19.9517 6.576 19.4664 6.45333 19.0184 6.208C18.5704 5.952 18.213 5.60533 17.9464 5.168C17.6797 4.73067 17.5464 4.24533 17.5464 3.712C17.5464 3.22133 17.669 2.75733 17.9144 2.32C18.1704 1.88267 18.517 1.53067 18.9544 1.264C19.4024 0.986666 19.909 0.848 20.4744 0.848C20.997 0.848 21.477 0.976 21.9144 1.232C22.3517 1.47733 22.7037 1.81333 22.9704 2.24C23.2477 2.66667 23.3864 3.15733 23.3864 3.712C23.3864 4.23467 23.253 4.71467 22.9864 5.152C22.7304 5.58933 22.3784 5.936 21.9304 6.192C21.493 6.448 21.0077 6.576 20.4744 6.576Z" fill="#5F6368"/>
</svg>
